<?xml version="1.0" ?><!DOCTYPE svg  PUBLIC '-//W3C//DTD SVG 1.1//EN'  'http://www.w3.org/Graphics/SVG/1.1/DTD/svg11.dtd'><svg height="590px" style="enable-background:new 0 0 590 590;" version="1.1" viewBox="0 0 590 590" width="590px" xml:space="preserve" xmlns="http://www.w3.org/2000/svg" xmlns:xlink="http://www.w3.org/1999/xlink"><g><g id="Base_1_"><g><g><g><path d="M-308.877-1353.063c-152.349,0-276.297-123.943-276.297-276.289        c0-152.361,123.948-276.305,276.297-276.305c152.346,0,276.297,123.943,276.297,276.305        C-32.58-1477.006-156.531-1353.063-308.877-1353.063z" style="fill:#E6EAEF;"/><g><linearGradient gradientUnits="userSpaceOnUse" id="SVGID_1_" x1="-317.5972" x2="-310.0975" y1="-1378.2705" y2="-1891.2449"><stop offset="1.000000e-008" style="stop-color:#00BFBF"/><stop offset="0.1653" style="stop-color:#00FFFF"/><stop offset="0.3136" style="stop-color:#66FFFF"/><stop offset="0.4703" style="stop-color:#99FFFF"/><stop offset="0.6314" style="stop-color:#72FFFF"/><stop offset="0.8051" style="stop-color:#13FFFF"/><stop offset="1" style="stop-color:#00CACA"/></linearGradient><path d="M-54.78-1631.879         c0,143.104-116.011,259.107-259.117,259.107c-143.094,0-259.102-116.004-259.102-259.107         c0-143.102,116.008-259.098,259.102-259.098C-170.792-1890.977-54.78-1774.98-54.78-1631.879z" style="fill-rule:evenodd;clip-rule:evenodd;fill:url(#SVGID_1_);"/><linearGradient gradientUnits="userSpaceOnUse" id="SVGID_2_" x1="-368.5454" x2="-257.9219" y1="-1357.0654" y2="-1886.3093"><stop offset="1.000000e-008" style="stop-color:#00BFBF"/><stop offset="0.1653" style="stop-color:#00FFFF"/><stop offset="0.3136" style="stop-color:#66FFFF"/><stop offset="0.4703" style="stop-color:#99FFFF"/><stop offset="0.6314" style="stop-color:#72FFFF"/><stop offset="0.8051" style="stop-color:#13FFFF"/><stop offset="1" style="stop-color:#00CACA"/></linearGradient><path d="M-311.109-1339c-161.487,0-292.881-131.383-292.881-292.879         c0-161.502,131.395-292.891,292.881-292.891c161.501,0,292.892,131.389,292.892,292.891         C-18.217-1470.383-149.607-1339-311.109-1339z M-311.109-1898.488c-147.002,0-266.607,119.574-266.607,266.609         c0,147.006,119.605,266.605,266.607,266.605c147.021,0,266.611-119.6,266.611-266.605         C-44.498-1778.914-164.088-1898.488-311.109-1898.488z" style="fill:url(#SVGID_2_);"/><g style="opacity:0.3;"><path d="M-97.642-1830.406c3.013,15.77,4.781,31.975,5.156,48.518          c29.212,42.758,46.309,94.414,46.309,150.01c0,147.006-119.591,266.605-266.593,266.605          c-116.084,0-215.054-74.58-251.57-178.326c-12.931-10.01-24.996-21.088-36.078-33.08          C-574.527-1441.488-455.408-1339-312.77-1339c161.483,0,292.866-131.383,292.866-292.879          C-19.904-1708.416-49.411-1778.162-97.642-1830.406z" style="fill:#232121;"/></g><path d="M-106.576-1788.961         c1.731,12.08,2.644,24.41,2.644,36.977c0,143.088-116.003,259.1-259.106,259.1c-84.032,0-158.713-40.02-206.049-102.031         c17.939,125.586,125.914,222.145,256.457,222.145c143.099,0,259.102-116.004,259.102-259.107         C-53.528-1690.951-73.298-1745.385-106.576-1788.961z" style="opacity:0.2;fill-rule:evenodd;clip-rule:evenodd;fill:#232121;"/></g></g></g><path d="M-445.973-1603.977" style="fill:#512616;"/><path d="M-446.948-1551.688" style="fill:#512616;"/></g></g><g id="Layer_13"><g><g><g><path d="M909.148,1184.938c-152.349,0-276.297-123.943-276.297-276.289        c0-152.361,123.948-276.305,276.297-276.305c152.346,0,276.297,123.943,276.297,276.305        C1185.445,1060.994,1061.494,1184.938,909.148,1184.938z" style="fill:#E6EAEF;"/><g><linearGradient gradientUnits="userSpaceOnUse" id="SVGID_3_" x1="901.876" x2="906.3756" y1="1166.0176" y2="648.543"><stop offset="0.0042" style="stop-color:#5C9732"/><stop offset="0.1949" style="stop-color:#7AC943"/><stop offset="0.3602" style="stop-color:#95D469"/><stop offset="0.3971" style="stop-color:#97D56C"/><stop offset="0.4291" style="stop-color:#9FD877"/><stop offset="0.4593" style="stop-color:#ABDD89"/><stop offset="0.4661" style="stop-color:#AFDF8E"/><stop offset="0.48" style="stop-color:#ABDD88"/><stop offset="0.5251" style="stop-color:#A1D97A"/><stop offset="0.5636" style="stop-color:#9DD875"/><stop offset="0.7331" style="stop-color:#83CD4F"/><stop offset="1" style="stop-color:#61A035"/></linearGradient><path d="M1163.246,906.121         c0,143.104-116.012,259.107-259.117,259.107c-143.094,0-259.102-116.004-259.102-259.107         c0-143.102,116.008-259.098,259.102-259.098C1047.234,647.023,1163.246,763.02,1163.246,906.121z" style="fill-rule:evenodd;clip-rule:evenodd;fill:url(#SVGID_3_);"/><linearGradient gradientUnits="userSpaceOnUse" id="SVGID_4_" x1="849.481" x2="960.1045" y1="1180.9346" y2="651.6907"><stop offset="0.0042" style="stop-color:#5C9732"/><stop offset="0.1949" style="stop-color:#7AC943"/><stop offset="0.3602" style="stop-color:#95D469"/><stop offset="0.3971" style="stop-color:#97D56C"/><stop offset="0.4291" style="stop-color:#9FD877"/><stop offset="0.4593" style="stop-color:#ABDD89"/><stop offset="0.4661" style="stop-color:#AFDF8E"/><stop offset="0.48" style="stop-color:#ABDD88"/><stop offset="0.5251" style="stop-color:#A1D97A"/><stop offset="0.5636" style="stop-color:#9DD875"/><stop offset="0.7331" style="stop-color:#83CD4F"/><stop offset="1" style="stop-color:#61A035"/></linearGradient><path d="M906.917,1199c-161.487,0-292.881-131.383-292.881-292.879         c0-161.502,131.395-292.891,292.881-292.891c161.501,0,292.892,131.389,292.892,292.891         C1199.809,1067.617,1068.418,1199,906.917,1199z M906.917,639.512c-147.002,0-266.607,119.574-266.607,266.609         c0,147.006,119.605,266.605,266.607,266.605c147.021,0,266.61-119.6,266.61-266.605         C1173.527,759.086,1053.938,639.512,906.917,639.512z" style="fill:url(#SVGID_4_);"/><g style="opacity:0.3;"><path d="M1120.383,707.594c3.014,15.77,4.781,31.975,5.156,48.518          c29.213,42.758,46.309,94.414,46.309,150.01c0,147.006-119.59,266.605-266.592,266.605          c-116.084,0-215.054-74.58-251.57-178.326c-12.931-10.01-24.996-21.088-36.078-33.08          C643.499,1096.512,762.618,1199,905.256,1199c161.483,0,292.865-131.383,292.865-292.879          C1198.121,829.584,1168.615,759.838,1120.383,707.594z" style="fill:#232121;"/></g></g></g></g><path d="M772.053,934.023" style="fill:#512616;"/><path d="M771.078,986.313" style="fill:#512616;"/></g><g><path d="M954.283,1006.549c0,6.085,0.775,12.308-0.409,18.135      c-0.431,2.122-5.434,4.418-8.517,4.681c-7.203,0.616-13.417,1.556-13.362,10.695c0.054,9.399,6.354,11.396,14.081,11.548      c0.388,0.008,0.78,0.068,1.162,0.023c11.036-1.372,25.851,5.172,31.83-7.467c6.708-14.187,4.682-30.639-2.682-44.809      c-2.33-4.485-9.379-7.601-14.883-9.115c-9.256-2.543-18.985-3.432-28.55-4.777c-13.783-1.939-22.79-9.03-25.544-23.434      c-2.367,8.535-4.414,16.739-6.941,24.799c-3.018,9.621-10.017,13.738-19.747,11.875c-22.751-4.357-45.447-9.012-68.104-13.84      c-11.403-2.428-18.594-10.332-20.943-21.152c-6.222-28.662-12.831-57.342-16.767-86.357      c-3.211-23.697,6.763-33.511,30.662-34.997c8.112-0.505,16.278-0.245,24.418-0.202c8.281,0.044,11.978-4.057,11.851-12.224      c-0.145-9.304-0.131-18.613,0.014-27.912c0.213-13.585,6.516-23.582,19.803-24.544c17.053-1.231,34.48,0.14,51.49,2.369      c5.344,0.699,11.523,6.89,14.332,12.162c3.653,6.863,8.141,7.634,14.81,8.031c19.64,1.177,39.274,2.795,58.823,5.018      c16.283,1.853,26.023,11.506,27.751,27.936c7.149,67.912,11.969,135.788-6.258,202.934c-0.301,1.117-0.534,2.26-0.883,3.365      c-15.25,48.246-28.726,47.176-61.851,46.228c-10.408-0.298-20.92-0.62-31.161-2.293c-17.313-2.832-25.415-12.806-26.007-30.14      c-0.08-2.321,0.053-4.647,0.064-6.976C902.933,1010.943,919.072,998.572,954.283,1006.549z M985.932,923.055      c1.348-8.7-1.996-14.83-10.719-16.424c-9.893-1.807-14.748,3.943-16.106,13.822C967.97,921.313,976.271,922.118,985.932,923.055      z" style="fill-rule:evenodd;clip-rule:evenodd;"/><path d="M787.121,839.079c14.874-15.053,33.246-33.643,49.481-50.075      c0,10.613-0.196,24.389,0.072,38.158c0.159,8.391-3.673,12.004-11.833,11.947C810.754,839.01,796.667,839.079,787.121,839.079z" style="fill-rule:evenodd;clip-rule:evenodd;"/><path d="M985.932,923.055c-9.661-0.937-17.962-1.742-26.825-2.602      c1.358-9.879,6.214-15.629,16.106-13.822C983.936,908.225,987.279,914.354,985.932,923.055z" style="fill-rule:evenodd;clip-rule:evenodd;fill:none;"/></g><path d="M1111.449,749.039     c1.731,12.08,2.645,24.41,2.645,36.977c0,143.088-116.004,259.1-259.106,259.1c-84.032,0-158.713-40.02-206.049-102.031     c17.939,125.586,125.914,222.145,256.457,222.145c143.099,0,259.103-116.004,259.103-259.107     C1164.498,847.049,1144.727,792.615,1111.449,749.039z" style="opacity:0.2;fill-rule:evenodd;clip-rule:evenodd;fill:#232121;"/></g><g id="RSS"><g><g><g><path d="M906.112,573.822c-152.349,0-276.296-123.943-276.296-276.289        c0-152.361,123.948-276.305,276.296-276.305c152.347,0,276.298,123.943,276.298,276.305        C1182.41,449.879,1058.459,573.822,906.112,573.822z" style="fill:#E6EAEF;"/><g><linearGradient gradientUnits="userSpaceOnUse" id="SVGID_5_" x1="901.8535" x2="900.3532" y1="554.1123" y2="38.1377"><stop offset="0" style="stop-color:#B96E17"/><stop offset="0.1525" style="stop-color:#F7931E"/><stop offset="0.3008" style="stop-color:#F9A94B"/><stop offset="0.4576" style="stop-color:#FABE78"/><stop offset="0.5847" style="stop-color:#F8A23E"/><stop offset="0.7585" style="stop-color:#F89A2D"/><stop offset="1" style="stop-color:#C97719"/></linearGradient><path d="M1160.21,295.006         c0,143.104-116.012,259.107-259.117,259.107c-143.094,0-259.102-116.004-259.102-259.107         c0-143.102,116.008-259.098,259.102-259.098C1044.198,35.908,1160.21,151.904,1160.21,295.006z" style="fill-rule:evenodd;clip-rule:evenodd;fill:url(#SVGID_5_);"/><linearGradient gradientUnits="userSpaceOnUse" id="SVGID_6_" x1="846.4453" x2="957.0688" y1="569.8203" y2="40.5765"><stop offset="0" style="stop-color:#B96E17"/><stop offset="0.1525" style="stop-color:#F7931E"/><stop offset="0.3008" style="stop-color:#F9A94B"/><stop offset="0.4576" style="stop-color:#FABE78"/><stop offset="0.5847" style="stop-color:#F8A23E"/><stop offset="0.7585" style="stop-color:#F89A2D"/><stop offset="1" style="stop-color:#C97719"/></linearGradient><path d="M903.881,587.885C742.395,587.885,611,456.502,611,295.006         C611,133.504,742.395,2.115,903.881,2.115c161.502,0,292.893,131.389,292.893,292.891         C1196.773,456.502,1065.383,587.885,903.881,587.885z M903.881,28.396c-147.002,0-266.607,119.574-266.607,266.609         c0,147.006,119.605,266.605,266.607,266.605c147.021,0,266.611-119.6,266.611-266.605         C1170.492,147.971,1050.901,28.396,903.881,28.396z" style="fill:url(#SVGID_6_);"/><g style="opacity:0.3;"><path d="M1117.348,96.479c3.014,15.77,4.781,31.975,5.156,48.518          c29.213,42.758,46.309,94.414,46.309,150.01c0,147.006-119.591,266.605-266.592,266.605          c-116.084,0-215.054-74.58-251.57-178.326c-12.931-10.01-24.996-21.088-36.078-33.08          c25.891,135.191,145.01,237.68,287.648,237.68c161.484,0,292.866-131.383,292.866-292.879          C1195.086,218.469,1165.579,148.723,1117.348,96.479z" style="fill:#232121;"/></g></g></g></g><path d="M769.018,322.908" style="fill:#512616;"/><path d="M768.042,375.197" style="fill:#512616;"/></g><path d="M1108.414,137.924     c1.731,12.08,2.644,24.41,2.644,36.977c0,143.088-116.003,259.1-259.105,259.1c-84.032,0-158.713-40.02-206.049-102.031     c17.939,125.586,125.914,222.145,256.457,222.145c143.098,0,259.102-116.004,259.102-259.107     C1161.462,235.934,1141.691,181.5,1108.414,137.924z" style="opacity:0.2;fill-rule:evenodd;clip-rule:evenodd;fill:#232121;"/><path d="M1026.408,429.738c-5.916-0.318-11.828-0.727-17.746-0.928     c-5.211-0.178-6.189-3.033-5.994-7.693c1.65-39.539-1.551-78.484-12.076-116.896c-9.982-36.436-32.455-59.631-68.314-70.74     c-22.933-7.106-46.229-12.021-70.172-13.643c-16.125-1.09-32.273-1.917-48.421-2.549c-4.166-0.163-5.619-1.577-5.54-5.661     c0.182-9.586,0.19-19.18-0.005-28.765c-0.075-3.737,1.438-5.524,4.991-5.818c9.285-0.769,18.562-1.992,27.86-2.177     c31.48-0.618,62.804,0.713,93.647,8.063c29.492,7.025,56.953,18.239,79.576,38.932c18.311,16.751,27.59,38.8,33.754,62.289     c6.852,26.108,10.166,52.691,9.664,79.7c-0.361,19.549-0.936,39.096-1.416,58.644c-0.117,4.858-1.941,7.693-7.471,7.195     c-4.078-0.365-8.211-0.07-12.322-0.07C1026.418,429.659,1026.414,429.7,1026.408,429.738z" style="fill-rule:evenodd;clip-rule:evenodd;fill:#FFFFFF;"/><path d="M829.309,257.34c27.346-1.65,51.218,2.307,74.49,10.578     c33.508,11.912,51.92,36.164,58.734,70.394c5.031,25.276,4.379,50.796,4.08,76.32c-0.035,2.925-0.291,6.079-1.443,8.686     c-0.871,1.975-3.295,4.569-5.092,4.62c-13.467,0.386-26.949,0.186-40.426,0.215c-4.531,0.009-4.98-2.583-4.721-6.344     c0.971-14.077,2.473-28.179,2.314-42.255c-0.164-14.615-2.615-29.122-10.186-42.067c-10.738-18.37-28.679-24.259-48.234-27.096     c-17.751-2.575-35.443-1.823-53.067,1.18c-5.262,0.897-7.552-0.838-7.46-6.418c0.217-13.246,0.283-26.503-0.037-39.743     c-0.14-5.76,2.648-7.926,7.663-8.022C814.599,257.218,823.279,257.34,829.309,257.34z" style="fill-rule:evenodd;clip-rule:evenodd;fill:#FFFFFF;"/><path d="M839.487,426.955c-24.891-0.021-44.104-19.329-44.047-44.263     c0.056-24.306,19.406-43.763,43.861-44.104c25.038-0.35,45.184,19.777,45.218,44.967     C884.551,408.261,862.604,428.348,839.487,426.955z" style="fill-rule:evenodd;clip-rule:evenodd;fill:#FFFFFF;"/></g><g id="Pintrest"><g><g><g><path d="M909.339-38.293c-152.349,0-276.296-123.943-276.296-276.289        c0-152.361,123.948-276.305,276.296-276.305c152.347,0,276.298,123.943,276.298,276.305        C1185.637-162.236,1061.686-38.293,909.339-38.293z" style="fill:#E6EAEF;"/><g><linearGradient gradientUnits="userSpaceOnUse" id="SVGID_7_" x1="903.3462" x2="905.3466" y1="-59.0024" y2="-585.0032"><stop offset="0" style="stop-color:#B2151B"/><stop offset="0.2034" style="stop-color:#ED1C24"/><stop offset="0.3898" style="stop-color:#F14950"/><stop offset="0.5169" style="stop-color:#F4777C"/><stop offset="0.6441" style="stop-color:#F04047"/><stop offset="0.7458" style="stop-color:#EF3037"/><stop offset="1" style="stop-color:#B9161C"/></linearGradient><path d="M1163.437-317.109         c0,143.104-116.011,259.107-259.117,259.107c-143.094,0-259.102-116.004-259.102-259.107         c0-143.102,116.008-259.098,259.102-259.098C1047.426-576.207,1163.437-460.211,1163.437-317.109z" style="fill-rule:evenodd;clip-rule:evenodd;fill:url(#SVGID_7_);"/><linearGradient gradientUnits="userSpaceOnUse" id="SVGID_8_" x1="849.6719" x2="960.2954" y1="-42.2959" y2="-571.5397"><stop offset="0" style="stop-color:#B2151B"/><stop offset="0.2034" style="stop-color:#ED1C24"/><stop offset="0.3898" style="stop-color:#F14950"/><stop offset="0.5169" style="stop-color:#F4777C"/><stop offset="0.6441" style="stop-color:#F04047"/><stop offset="0.7458" style="stop-color:#EF3037"/><stop offset="1" style="stop-color:#B9161C"/></linearGradient><path d="M907.108-24.23c-161.487,0-292.882-131.383-292.882-292.879         C614.227-478.611,745.621-610,907.108-610C1068.609-610,1200-478.611,1200-317.109         C1200-155.613,1068.609-24.23,907.108-24.23z M907.108-583.719c-147.003,0-266.608,119.574-266.608,266.609         c0,147.006,119.605,266.605,266.608,266.605c147.021,0,266.61-119.6,266.61-266.605         C1173.719-464.145,1054.129-583.719,907.108-583.719z" style="fill:url(#SVGID_8_);"/><g style="opacity:0.3;"><path d="M1120.574-515.637c3.014,15.77,4.781,31.975,5.156,48.518          c29.213,42.758,46.309,94.414,46.309,150.01c0,147.006-119.59,266.605-266.593,266.605          c-116.084,0-215.054-74.58-251.57-178.326c-12.931-10.01-24.996-21.088-36.078-33.08          c25.891,135.191,145.01,237.68,287.647,237.68c161.483,0,292.866-131.383,292.866-292.879          C1198.313-393.646,1168.806-463.393,1120.574-515.637z" style="fill:#232121;"/></g><path d="M1111.641-474.191         c1.73,12.08,2.645,24.41,2.645,36.977c0,143.088-116.004,259.1-259.106,259.1c-84.032,0-158.713-40.02-206.049-102.031         C667.068-154.561,775.043-58.002,905.587-58.002c143.099,0,259.102-116.004,259.102-259.107         C1164.688-376.182,1144.918-430.615,1111.641-474.191z" style="opacity:0.2;fill-rule:evenodd;clip-rule:evenodd;fill:#232121;"/></g></g></g><path d="M772.244-289.207" style="fill:#512616;"/><path d="M771.269-236.918" style="fill:#512616;"/></g><path d="M894.597-241.743     c-15.571,36.278-30.712,71.553-45.854,106.83c-4.344-1.042-8.687-2.083-13.036-3.122c0-23.38-2.293-47.054,0.624-70.063     c3.172-25.041,12.362-49.267,16.694-74.235c2.978-17.147,1.078-35.09,3.304-52.428c2.095-16.348,3.078-34.755,11.527-47.705     c5.747-8.812,25.889-16.028,35.229-12.476c9.062,3.449,17.604,21.666,17.341,33.187c-0.422,18.28-10.577,36.17-12.353,54.635     c-1.176,12.207,1.398,32.008,8.946,36.078c10.578,5.706,30.051,4.573,40.947-1.793c30.69-17.915,44.971-88.326,28.227-124.176     c-15.019-32.175-52.882-46.059-98.024-35.938c-40.067,8.985-69.09,47.633-65.775,90.178c0.907,11.629,9.345,22.618,10.566,34.293     c1.039,10.002-3.293,20.567-5.249,30.882c-8.201-3.227-18.026-4.575-24.314-10.013c-24.436-21.146-30.404-67.836-14.92-105.645     c35.427-86.545,165.093-108.919,227.84-39.314c47.815,53.046,30.922,158.085-31.122,193.509     C955.549-222.129,929.222-222.913,894.597-241.743z" style="fill-rule:evenodd;clip-rule:evenodd;fill:#FFFFFF;"/></g><g id="Snapchat"><g><g><g><path d="M299.788,1185.71c-152.349,0-276.297-123.943-276.297-276.289        c0-152.361,123.948-276.305,276.297-276.305c152.346,0,276.297,123.943,276.297,276.305        C576.085,1061.767,452.134,1185.71,299.788,1185.71z" style="fill:#E6EAEF;"/><g><linearGradient gradientUnits="userSpaceOnUse" id="SVGID_9_" x1="296.2915" x2="293.2914" y1="1162.9697" y2="655.9191"><stop offset="0" style="stop-color:#BFBF00"/><stop offset="0.322" style="stop-color:#F6FD07"/><stop offset="0.5127" style="stop-color:#FFFF66"/><stop offset="0.557" style="stop-color:#FDFE52"/><stop offset="0.6869" style="stop-color:#F6FB1C"/><stop offset="0.75" style="stop-color:#F4FA07"/><stop offset="0.879" style="stop-color:#DCDF04"/><stop offset="1" style="stop-color:#C9CA01"/></linearGradient><path d="M553.885,906.894         c0,143.104-116.011,259.107-259.117,259.107c-143.094,0-259.102-116.004-259.102-259.107         c0-143.102,116.008-259.098,259.102-259.098C437.875,647.796,553.885,763.792,553.885,906.894z" style="fill-rule:evenodd;clip-rule:evenodd;fill:url(#SVGID_9_);"/><linearGradient gradientUnits="userSpaceOnUse" id="SVGID_10_" x1="240.1201" x2="350.7437" y1="1181.707" y2="652.4632"><stop offset="0" style="stop-color:#BFBF00"/><stop offset="0.322" style="stop-color:#F6FD07"/><stop offset="0.5127" style="stop-color:#FFFF66"/><stop offset="0.557" style="stop-color:#FDFE52"/><stop offset="0.6869" style="stop-color:#F6FB1C"/><stop offset="0.75" style="stop-color:#F4FA07"/><stop offset="0.879" style="stop-color:#DCDF04"/><stop offset="1" style="stop-color:#C9CA01"/></linearGradient><path d="M297.557,1199.772c-161.487,0-292.881-131.383-292.881-292.879         c0-161.502,131.395-292.891,292.881-292.891c161.501,0,292.892,131.389,292.892,292.891         C590.449,1068.39,459.058,1199.772,297.557,1199.772z M297.557,640.284c-147.002,0-266.607,119.574-266.607,266.609         c0,147.006,119.605,266.605,266.607,266.605c147.021,0,266.611-119.6,266.611-266.605         C564.167,759.858,444.578,640.284,297.557,640.284z" style="fill:url(#SVGID_10_);"/><g style="opacity:0.3;"><path d="M511.023,708.366c3.014,15.77,4.781,31.975,5.156,48.518          c29.213,42.758,46.309,94.414,46.309,150.01c0,147.006-119.59,266.605-266.592,266.605          c-116.084,0-215.054-74.58-251.57-178.326c-12.931-10.01-24.996-21.088-36.078-33.08          c25.891,135.191,145.01,237.68,287.648,237.68c161.483,0,292.866-131.383,292.866-292.879          C588.761,830.356,559.254,760.61,511.023,708.366z" style="fill:#232121;"/></g></g></g></g><path d="M162.693,934.796" style="fill:#512616;"/><path d="M161.717,987.085" style="fill:#512616;"/></g><g><path d="M452.775,991.597c-5.041,2.562-8.71,5.056-12.763,6.338      c-6.445,2.037-13.074,3.806-19.757,4.677c-6.212,0.81-8.879,4.145-9.93,9.709c-0.313,1.665-1.006,3.288-1.118,4.958      c-0.346,5.138-3.251,5.181-7.465,4.72c-8.601-0.94-17.295-1.837-25.918-1.596c-11.824,0.331-21.074,7.264-30.123,13.99      c-12.698,9.434-26.533,15.488-42.602,13.272c-7.211-0.993-14.391-3.338-21.151-6.118c-5.014-2.064-9.639-5.439-13.903-8.89      c-15.799-12.791-33.598-15.166-52.858-10.972c-2.206,0.48-4.5,0.555-6.233,0.756c-0.735-0.664-1.017-0.797-1.022-0.941      c-0.632-14.709-9.343-19.914-22.965-21.141c-7.357-0.664-14.949-3.02-20.894-9.482c1.568-0.688,2.584-1.321,3.689-1.593      c30.887-7.586,49.746-28.577,62.19-56.364c3.821-8.535,0.988-15.804-6.985-20.776c-3.022-1.884-6.472-3.116-9.802-4.466      c-3.534-1.432-7.362-2.265-10.678-4.066c-3.453-1.875-9.402-3.324-7.064-8.716c2.17-5.007,7.341-4.187,12.288-2.897      c5.836,1.522,11.944,2.719,17.937,2.729c5.566,0.01,8.216-3.246,7.869-9.705c-0.807-15.019-1.777-30.176-0.649-45.121      c1.991-26.401,17.014-44.914,40.814-54.619c30.006-12.233,59.698-10.394,85.88,10.492      c15.021,11.984,23.977,28.045,23.944,47.908c-0.022,13.568-0.62,27.141-1.09,40.707c-0.262,7.513,1.63,10.36,9.084,10.553      c4.522,0.117,9.102-1.37,13.626-2.276c2.263-0.455,4.661-2.104,6.643-1.652c3.246,0.736,6.203,2.745,9.281,4.217      c-1.896,2.486-3.286,5.912-5.794,7.264c-5.175,2.788-10.985,4.378-16.466,6.626c-14.102,5.785-17.782,14.814-10.887,28.348      C401.07,963.31,419.7,982.93,449.3,989.506C449.862,989.63,450.345,990.115,452.775,991.597z" style="fill-rule:evenodd;clip-rule:evenodd;fill:#FFFFFF;"/><path d="M309.708,1050.123c-2.272,0-4.587-0.16-6.881-0.477c-6.517-0.897-13.595-2.942-21.639-6.25      c-5.471-2.253-10.349-5.907-14.4-9.185c-10.327-8.36-21.778-12.425-35.009-12.425c-5.083,0-10.522,0.623-16.167,1.853      c-1.675,0.365-3.34,0.508-4.809,0.635c-0.576,0.05-1.122,0.096-1.619,0.153l-0.899,0.104l-0.672-0.606      c-0.265-0.239-0.463-0.4-0.605-0.516c-0.388-0.316-1.038-0.845-1.075-1.836c-0.523-12.183-6.848-17.936-21.146-19.223      c-9.45-0.854-16.708-4.164-22.187-10.121l-1.896-2.061l2.565-1.125c0.517-0.227,0.97-0.447,1.386-0.648      c0.875-0.425,1.7-0.826,2.629-1.055c27.296-6.704,47.198-24.772,60.842-55.239c4.16-9.294-1.085-15.061-6.218-18.262      c-2.363-1.474-5.128-2.571-7.802-3.633c-0.566-0.225-1.131-0.449-1.693-0.677c-1.279-0.519-2.592-0.952-3.982-1.411      c-2.303-0.761-4.684-1.548-6.899-2.751c-0.549-0.299-1.167-0.585-1.803-0.881c-3.096-1.44-8.858-4.121-6.142-10.389      c1.462-3.372,4.2-5.081,8.137-5.081c2.187,0,4.508,0.527,6.49,1.044c6.937,1.81,12.477,2.656,17.436,2.664      c2.034,0,3.465-0.478,4.396-1.459c1.131-1.194,1.627-3.26,1.472-6.139l-0.17-3.144c-0.755-13.865-1.535-28.203-0.476-42.235      c1.994-26.439,16.536-45.915,42.053-56.32c12.624-5.147,25.037-7.757,36.896-7.757c18.413,0,35.567,6.237,50.987,18.537      c16.189,12.915,24.729,30.023,24.697,49.475c-0.019,11.146-0.43,22.46-0.828,33.402c-0.089,2.457-0.179,4.914-0.264,7.371      c-0.126,3.617,0.289,5.731,1.345,6.854c0.975,1.035,2.815,1.554,5.792,1.631c3.082,0.073,6.214-0.653,9.54-1.429      c1.216-0.284,2.432-0.567,3.643-0.81c0.668-0.135,1.418-0.426,2.212-0.733c1.312-0.509,2.668-1.035,4.102-1.035      c0.402,0,0.793,0.043,1.165,0.127c2.546,0.577,4.843,1.81,7.064,3c0.907,0.486,1.764,0.946,2.636,1.362l2.219,1.062      l-1.491,1.956c-0.534,0.7-1.037,1.504-1.568,2.354c-1.315,2.103-2.674,4.276-4.867,5.458c-3.482,1.876-7.233,3.227-10.861,4.534      c-1.919,0.69-3.903,1.405-5.795,2.182c-6.708,2.752-10.725,6.128-12.28,10.321c-1.52,4.099-0.729,9.093,2.417,15.268      c14.759,28.969,33.84,45.172,60.048,50.995c0.691,0.152,1.186,0.478,2.006,1.017c0.468,0.307,1.116,0.733,2.076,1.318      l3.061,1.867l-3.196,1.624c-1.616,0.82-3.082,1.632-4.5,2.416c-3.03,1.675-5.646,3.122-8.565,4.046      c-7.835,2.477-14.223,3.986-20.103,4.753c-4.939,0.644-7.245,2.914-8.223,8.097c-0.141,0.746-0.34,1.454-0.532,2.139      c-0.258,0.917-0.502,1.782-0.555,2.582c-0.307,4.555-2.539,6.769-6.823,6.769c-0.952,0-1.977-0.099-2.855-0.194      c-9.173-1.003-17.359-1.817-25.645-1.585c-11.116,0.312-20.11,6.998-28.808,13.464l-0.178,0.133      C334.101,1045.502,321.938,1050.122,309.708,1050.123z M231.779,1017.787c14.183,0,26.458,4.355,37.525,13.315      c3.826,3.096,8.412,6.538,13.406,8.595c7.726,3.178,14.485,5.136,20.663,5.986c2.113,0.292,4.245,0.439,6.335,0.439      c11.497-0.001,22.555-4.238,34.801-13.336l0.177-0.132c9.196-6.836,18.705-13.905,31.082-14.252      c8.533-0.235,16.874,0.587,26.192,1.606c0.771,0.084,1.661,0.171,2.42,0.171c1.727,0,2.637-0.136,2.832-3.037      c0.082-1.214,0.394-2.323,0.696-3.396c0.177-0.629,0.344-1.223,0.452-1.797c1.294-6.858,4.992-10.456,11.637-11.322      c5.64-0.735,11.809-2.197,19.413-4.601c2.539-0.803,4.994-2.16,7.836-3.732c0.509-0.281,1.024-0.566,1.552-0.854      c-0.008-0.004-0.016-0.008-0.022-0.011c-26.996-5.989-47.521-23.354-62.654-53.055c-3.682-7.227-4.533-13.27-2.602-18.476      c1.965-5.299,6.712-9.431,14.512-12.631c1.973-0.809,3.999-1.538,5.958-2.244c3.65-1.315,7.099-2.558,10.319-4.292      c1.26-0.68,2.287-2.32,3.374-4.058c0.144-0.23,0.29-0.463,0.438-0.696c-0.246-0.13-0.49-0.261-0.731-0.391      c-2.078-1.114-4.042-2.167-6.061-2.625c-0.623-0.139-1.818,0.305-2.934,0.737c-0.917,0.355-1.865,0.723-2.872,0.926      c-1.172,0.234-2.345,0.509-3.521,0.783c-3.421,0.799-6.976,1.625-10.552,1.531c-4.17-0.107-6.823-0.998-8.602-2.888      c-2.353-2.5-2.549-6.323-2.43-9.733c0.085-2.459,0.175-4.918,0.264-7.378c0.397-10.908,0.807-22.188,0.825-33.263      c0.03-18.449-7.773-34.041-23.191-46.342c-14.693-11.721-31.009-17.664-48.493-17.664c-11.338,0-23.244,2.51-35.386,7.46      c-24.018,9.794-37.702,28.093-39.575,52.918c-1.039,13.773-0.266,27.979,0.482,41.718l0.17,3.146      c0.216,4.019-0.646,7.082-2.563,9.104c-1.703,1.797-4.151,2.708-7.278,2.708c-5.335-0.009-11.194-0.896-18.466-2.793      c-1.736-0.453-3.746-0.915-5.481-0.915c-2.319,0-3.655,0.799-4.467,2.673c-0.96,2.214-0.221,3.132,4.159,5.171      c0.682,0.316,1.386,0.645,2.025,0.991c1.9,1.033,4.011,1.73,6.245,2.469c1.39,0.459,2.828,0.934,4.229,1.502      c0.553,0.224,1.109,0.445,1.667,0.666c2.838,1.127,5.773,2.292,8.442,3.956c9.031,5.633,11.857,14.122,7.752,23.291      c-14.182,31.667-34.965,50.472-63.539,57.489c-0.221,0.054-0.454,0.137-0.706,0.242c4.524,3.977,10.315,6.24,17.613,6.898      c10.055,0.905,23.447,4.186,24.722,21.974c0.193-0.018,0.391-0.034,0.592-0.052c1.348-0.116,2.876-0.247,4.3-0.558      C220.685,1018.441,226.41,1017.787,231.779,1017.787z"/></g><path d="M502.089,749.812     c1.73,12.08,2.645,24.41,2.645,36.977c0,143.088-116.004,259.1-259.106,259.1c-84.032,0-158.713-40.02-206.049-102.031     c17.939,125.586,125.914,222.145,256.457,222.145c143.099,0,259.102-116.004,259.102-259.107     C555.137,847.821,535.367,793.388,502.089,749.812z" style="opacity:0.2;fill-rule:evenodd;clip-rule:evenodd;fill:#232121;"/></g><g id="LinkedIn"><g><g><g><path d="M907.227-644.063c-152.35,0-276.297-123.943-276.297-276.289        c0-152.361,123.948-276.305,276.297-276.305c152.346,0,276.297,123.943,276.297,276.305        C1183.523-768.006,1059.572-644.063,907.227-644.063z" style="fill:#E6EAEF;"/><g><linearGradient gradientUnits="userSpaceOnUse" id="SVGID_11_" x1="906.6162" x2="897.615" y1="-669.0112" y2="-1188.0621"><stop offset="0" style="stop-color:#085A89"/><stop offset="0.2585" style="stop-color:#0B78B7"/><stop offset="0.3628" style="stop-color:#2184BD"/><stop offset="0.5085" style="stop-color:#3C93C5"/><stop offset="0.7288" style="stop-color:#2C8AC0"/><stop offset="0.8079" style="stop-color:#1E79AD"/><stop offset="0.9249" style="stop-color:#0E6597"/><stop offset="1" style="stop-color:#085E8F"/></linearGradient><path d="M1161.323-922.879         c0,143.104-116.011,259.107-259.117,259.107c-143.094,0-259.102-116.004-259.102-259.107         c0-143.102,116.008-259.098,259.102-259.098C1045.313-1181.977,1161.323-1065.98,1161.323-922.879z" style="fill-rule:evenodd;clip-rule:evenodd;fill:url(#SVGID_11_);"/><linearGradient gradientUnits="userSpaceOnUse" id="SVGID_12_" x1="897.6973" x2="912.6991" y1="-654.1416" y2="-1206.1975"><stop offset="0" style="stop-color:#085A89"/><stop offset="0.2585" style="stop-color:#0B78B7"/><stop offset="0.3628" style="stop-color:#2184BD"/><stop offset="0.5085" style="stop-color:#3C93C5"/><stop offset="0.7288" style="stop-color:#2C8AC0"/><stop offset="0.8079" style="stop-color:#1E79AD"/><stop offset="0.9249" style="stop-color:#0E6597"/><stop offset="1" style="stop-color:#085E8F"/></linearGradient><path d="M904.995-630c-161.487,0-292.881-131.383-292.881-292.879         c0-161.502,131.395-292.891,292.881-292.891c161.501,0,292.892,131.389,292.892,292.891         C1197.887-761.383,1066.496-630,904.995-630z M904.995-1189.488c-147.002,0-266.607,119.574-266.607,266.609         c0,147.006,119.605,266.605,266.607,266.605c147.021,0,266.611-119.6,266.611-266.605         C1171.605-1069.914,1052.016-1189.488,904.995-1189.488z" style="fill:url(#SVGID_12_);"/><g style="opacity:0.3;"><path d="M1118.461-1121.406c3.014,15.77,4.781,31.975,5.156,48.518          c29.213,42.758,46.309,94.414,46.309,150.01c0,147.006-119.59,266.605-266.592,266.605          c-116.084,0-215.054-74.58-251.57-178.326c-12.931-10.01-24.996-21.088-36.078-33.08          C641.576-732.488,760.695-630,903.333-630c161.483,0,292.866-131.383,292.866-292.879          C1196.199-999.416,1166.692-1069.162,1118.461-1121.406z" style="fill:#232121;"/></g></g></g></g><path d="M770.131-894.977" style="fill:#512616;"/><path d="M769.155-842.688" style="fill:#512616;"/></g><path d="M1055.891-805.524c-19.057,0-37.854,0-57.826,0     c0-2.43,0-4.856,0-7.282c0-28.213,0.172-56.427-0.11-84.637c-0.081-7.983-0.815-16.096-2.443-23.9     c-2.829-13.569-10.446-20.402-24.163-21.084c-12.545-0.622-24.293,2.899-29.586,15.313c-2.756,6.469-4.735,13.787-4.869,20.762     c-0.598,30.959-0.391,61.933-0.492,92.901c-0.027,8.297-0.061,8.306-8.51,8.31c-14.849,0.006-29.7-0.163-44.544,0.094     c-4.786,0.082-6.187-1.602-6.178-6.229c0.113-57.486,0.107-114.973,0.011-172.458c-0.006-4.348,1.349-5.966,5.849-5.9     c15.057,0.222,30.121,0.213,45.181,0.004c4.394-0.06,6.158,1.357,5.928,5.814c-0.262,5.021-0.061,10.068-0.061,16.521     c8.816-12.152,19.171-20.516,32.453-23.876c25.611-6.481,50.24-5.276,70.725,13.921c12.064,11.304,17.107,26.724,17.559,42.5     c1.223,42.57,1.029,85.181,1.393,127.775C1056.209-806.771,1056.121-806.563,1055.891-805.524z" style="fill-rule:evenodd;clip-rule:evenodd;fill:#FFFFFF;"/><path d="M843.773-897.377c0,28.421-0.149,56.843,0.128,85.261     c0.056,5.646-1.573,7.242-7.165,7.103c-15.05-0.374-30.117-0.307-45.171-0.028c-5.1,0.095-7.139-1.269-7.125-6.696     c0.144-57.055,0.143-114.108,0.001-171.163c-0.014-5.363,1.895-6.858,7.067-6.759c15.053,0.293,30.121,0.338,45.172-0.019     c5.5-0.131,7.284,1.312,7.225,7.041C843.616-954.22,843.773-925.798,843.773-897.377z" style="fill-rule:evenodd;clip-rule:evenodd;fill:#FFFFFF;"/><path d="M780.39-1047.229c0.086-18.609,15.578-33.98,34.115-33.847     c18.377,0.133,34.127,16.027,33.963,34.271c-0.169,18.881-15.818,34.216-34.702,34.006     C795.096-1013.005,780.304-1028.265,780.39-1047.229z" style="fill-rule:evenodd;clip-rule:evenodd;fill:#FFFFFF;"/><path d="M1109.527-1079.961     c1.73,12.08,2.645,24.41,2.645,36.977c0,143.088-116.004,259.1-259.106,259.1c-84.032,0-158.713-40.02-206.049-102.031     C664.955-760.33,772.93-663.771,903.473-663.771c143.099,0,259.102-116.004,259.102-259.107     C1162.575-981.951,1142.805-1036.385,1109.527-1079.961z" style="opacity:0.2;fill-rule:evenodd;clip-rule:evenodd;fill:#232121;"/></g><g id="Telegram"><g><g><g><path d="M299.339,575.938c-152.349,0-276.297-123.943-276.297-276.289        c0-152.361,123.948-276.305,276.297-276.305c152.346,0,276.297,123.943,276.297,276.305        C575.637,451.994,451.686,575.938,299.339,575.938z" style="fill:#E6EAEF;"/><g><linearGradient gradientUnits="userSpaceOnUse" id="SVGID_13_" x1="290.7559" x2="298.7555" y1="540.8955" y2="-5.1055"><stop offset="0" style="stop-color:#2881A7"/><stop offset="0.0639" style="stop-color:#2986AD"/><stop offset="0.1495" style="stop-color:#2D93BE"/><stop offset="0.247" style="stop-color:#34A8DA"/><stop offset="0.2627" style="stop-color:#35ACDF"/><stop offset="0.428" style="stop-color:#5DBDE5"/><stop offset="0.661" style="stop-color:#41B1E1"/><stop offset="1" style="stop-color:#2984AB"/></linearGradient><path d="M553.437,297.121         c0,143.104-116.011,259.107-259.117,259.107c-143.094,0-259.102-116.004-259.102-259.107         c0-143.102,116.008-259.098,259.102-259.098C437.425,38.023,553.437,154.02,553.437,297.121z" style="fill-rule:evenodd;clip-rule:evenodd;fill:url(#SVGID_13_);"/><linearGradient gradientUnits="userSpaceOnUse" id="SVGID_14_" x1="298.1055" x2="296.1057" y1="575.0137" y2="15.0136"><stop offset="0" style="stop-color:#2881A7"/><stop offset="0.0639" style="stop-color:#2986AD"/><stop offset="0.1495" style="stop-color:#2D93BE"/><stop offset="0.247" style="stop-color:#34A8DA"/><stop offset="0.2627" style="stop-color:#35ACDF"/><stop offset="0.428" style="stop-color:#5DBDE5"/><stop offset="0.661" style="stop-color:#41B1E1"/><stop offset="1" style="stop-color:#2984AB"/></linearGradient><path d="M297.108,590C135.621,590,4.227,458.617,4.227,297.121         C4.227,135.619,135.621,4.23,297.108,4.23C458.609,4.23,590,135.619,590,297.121C590,458.617,458.609,590,297.108,590z          M297.108,30.512C150.105,30.512,30.5,150.086,30.5,297.121c0,147.006,119.605,266.605,266.607,266.605         c147.021,0,266.611-119.6,266.611-266.605C563.719,150.086,444.128,30.512,297.108,30.512z" style="fill:url(#SVGID_14_);"/><g style="opacity:0.3;"><path d="M510.575,98.594c3.013,15.77,4.781,31.975,5.156,48.518          c29.212,42.758,46.309,94.414,46.309,150.01c0,147.006-119.591,266.605-266.593,266.605          c-116.084,0-215.054-74.58-251.57-178.326c-12.931-10.01-24.996-21.088-36.078-33.08          C33.689,487.512,152.809,590,295.447,590c161.483,0,292.866-131.383,292.866-292.879          C588.313,220.584,558.806,150.838,510.575,98.594z" style="fill:#232121;"/></g></g></g></g><path d="M162.244,325.023" style="fill:#512616;"/><path d="M161.269,377.313" style="fill:#512616;"/></g><g><path d="M230,433c0,0,6.667,7.334,22-4.666L288.667,393l-49.333-32.703L230,433z" style="fill:#FFFFFF;"/><path d="M243.333,360.297l122,86.703c0,0,20.001,9.77,25.334-11.781l50.666-226.885      c0,0,9.334-31.334-44.666-10.667l-270,99.333c0,0-31.333,16.666,10.667,26L202,342.334L243.333,360.297z" style="fill:#FFFFFF;"/><path d="M202,342.334l172.667-106c0,0,13.333-4.668,7.333,4.666L243.333,360.297L238.667,433      c0,0-4.667,1.333-8.667,0L202,342.334z" style="fill:#D9D9D9;"/></g><path d="M501.641,140.039     c1.731,12.08,2.644,24.41,2.644,36.977c0,143.088-116.003,259.1-259.106,259.1c-84.032,0-158.713-40.02-206.049-102.031     C57.068,459.67,165.043,556.229,295.586,556.229c143.099,0,259.102-116.004,259.102-259.107     C554.688,238.049,534.918,183.615,501.641,140.039z" style="opacity:0.2;fill-rule:evenodd;clip-rule:evenodd;fill:#232121;"/></g><g id="Whatsapp"><g><g><g><path d="M299.339-34.063c-152.349,0-276.297-123.943-276.297-276.289        c0-152.361,123.948-276.305,276.297-276.305c152.346,0,276.297,123.943,276.297,276.305        C575.637-158.006,451.686-34.063,299.339-34.063z" style="fill:#E6EAEF;"/><g><linearGradient gradientUnits="userSpaceOnUse" id="SVGID_15_" x1="290.1118" x2="299.1127" y1="-85.2373" y2="-571.2855"><stop offset="0" style="stop-color:#2C654B"/><stop offset="0.1737" style="stop-color:#3A8764"/><stop offset="0.322" style="stop-color:#619F83"/><stop offset="0.4576" style="stop-color:#89B7A2"/><stop offset="0.5847" style="stop-color:#6FA78E"/><stop offset="0.7627" style="stop-color:#448D6C"/><stop offset="1" style="stop-color:#307053"/></linearGradient><path d="M553.437-312.879         c0,143.104-116.011,259.107-259.117,259.107c-143.094,0-259.102-116.004-259.102-259.107         c0-143.102,116.008-259.098,259.102-259.098C437.425-571.977,553.437-455.98,553.437-312.879z" style="fill-rule:evenodd;clip-rule:evenodd;fill:url(#SVGID_15_);"/><linearGradient gradientUnits="userSpaceOnUse" id="SVGID_16_" x1="239.6719" x2="350.2954" y1="-38.0654" y2="-567.3093"><stop offset="0" style="stop-color:#2C654B"/><stop offset="0.1737" style="stop-color:#3A8764"/><stop offset="0.322" style="stop-color:#619F83"/><stop offset="0.4576" style="stop-color:#89B7A2"/><stop offset="0.5847" style="stop-color:#6FA78E"/><stop offset="0.7627" style="stop-color:#448D6C"/><stop offset="1" style="stop-color:#307053"/></linearGradient><path d="M297.108-20C135.621-20,4.227-151.383,4.227-312.879         c0-161.502,131.395-292.891,292.881-292.891C458.609-605.77,590-474.381,590-312.879C590-151.383,458.609-20,297.108-20z          M297.108-579.488C150.105-579.488,30.5-459.914,30.5-312.879c0,147.006,119.605,266.605,266.607,266.605         c147.021,0,266.611-119.6,266.611-266.605C563.719-459.914,444.128-579.488,297.108-579.488z" style="fill:url(#SVGID_16_);"/><g style="opacity:0.3;"><path d="M510.575-511.406c3.013,15.77,4.781,31.975,5.156,48.518          c29.212,42.758,46.309,94.414,46.309,150.01c0,147.006-119.591,266.605-266.593,266.605          c-116.084,0-215.054-74.58-251.57-178.326c-12.931-10.01-24.996-21.088-36.078-33.08C33.689-122.488,152.809-20,295.447-20          c161.483,0,292.866-131.383,292.866-292.879C588.313-389.416,558.806-459.162,510.575-511.406z" style="fill:#232121;"/></g></g></g></g><path d="M162.244-284.977" style="fill:#512616;"/><path d="M161.269-232.688" style="fill:#512616;"/></g><g><linearGradient gradientUnits="userSpaceOnUse" id="SVGID_17_" x1="149.0752" x2="454.332" y1="-312.0708" y2="-312.0708"><stop offset="0" style="stop-color:#ADADAD"/><stop offset="0.3008" style="stop-color:#E6E6E6"/><stop offset="0.4958" style="stop-color:#F5F5F5"/><stop offset="0.6864" style="stop-color:#FAFAFA"/><stop offset="1" style="stop-color:#BBBBBB"/></linearGradient><path d="M149.075-158.347      c0.514-1.592,0.867-2.724,1.243-3.845c8.152-24.252,16.275-48.514,24.508-72.739c0.828-2.436,0.728-4.343-0.572-6.63      c-37.555-66.026-20.513-148.791,40.513-194.284c34.933-26.041,74.404-35.141,117.241-27.144      c64.36,12.015,112.58,63.5,121.09,128.329c8.099,61.698-24.27,123.732-79.749,151.786c-43.317,21.905-87.4,22.592-131.836,3.157      c-0.565-0.247-1.199-0.417-1.667-0.791c-5.36-4.264-10.774-3.409-16.928-1.347c-23.478,7.87-47.124,15.235-70.711,22.777      C151.367-158.808,150.484-158.671,149.075-158.347z" style="fill-rule:evenodd;clip-rule:evenodd;fill:url(#SVGID_17_);"/></g><g><path d="M178.072-187.344c0.42-1.303,0.708-2.228,1.018-3.146      c6.668-19.84,13.314-39.688,20.049-59.505c0.678-1.994,0.596-3.554-0.468-5.424c-30.723-54.015-16.781-121.723,33.143-158.94      c28.579-21.304,60.869-28.748,95.913-22.206c52.652,9.83,92.1,51.949,99.062,104.983      c6.625,50.474-19.854,101.223-65.241,124.173c-35.437,17.919-71.5,18.482-107.853,2.583c-0.462-0.202-0.98-0.341-1.364-0.647      c-4.385-3.489-8.815-2.789-13.849-1.102c-19.206,6.439-38.551,12.464-57.847,18.634      C179.947-187.721,179.225-187.609,178.072-187.344z" style="fill-rule:evenodd;clip-rule:evenodd;fill:#3A8764;"/></g><path d="M256.919-384.67c9.643,0.195,10.307,0.695,13.587,8.786     c3.399,8.379,6.821,16.75,10.356,25.072c1.179,2.775,1.444,5.439-0.315,7.913c-2.786,3.919-5.658,7.791-8.713,11.502     c-2.741,3.328-3.049,4.571-0.862,8.243c11.879,19.945,28.506,34.327,50.165,42.834c2.747,1.079,4.989,0.706,6.873-1.623     c3.683-4.554,7.402-9.079,11.077-13.641c2.652-3.291,4.484-4.113,8.278-2.38c10.277,4.697,20.439,9.647,30.622,14.552     c2.042,0.983,2.826,2.757,2.845,5.054c0.136,17.187-8.223,26.706-26.51,32.268c-8.752,2.662-17.267,0.992-25.672-1.865     c-11.679-3.97-23.413-7.803-34.046-14.26c-17.876-10.854-32.112-25.526-44.241-42.369c-6.187-8.592-12.391-17.197-16.051-27.285     c-5.033-13.874-4.945-27.375,3.057-40.245c1.079-1.737,2.477-3.274,3.702-4.922C245.256-382.665,250.62-385.685,256.919-384.67z" style="fill-rule:evenodd;clip-rule:evenodd;fill:#FFFFFF;"/><path d="M501.641-469.961     c1.731,12.08,2.644,24.41,2.644,36.977c0,143.088-116.003,259.1-259.106,259.1c-84.032,0-158.713-40.02-206.049-102.031     C57.068-150.33,165.043-53.771,295.586-53.771c143.099,0,259.102-116.004,259.102-259.107     C554.688-371.951,534.918-426.385,501.641-469.961z" style="opacity:0.2;fill-rule:evenodd;clip-rule:evenodd;fill:#232121;"/></g><g id="Google_x2B_"><g><g><g><path d="M299.012-644.547c-152.349,0-276.297-123.943-276.297-276.289        c0-152.361,123.948-276.305,276.297-276.305c152.346,0,276.297,123.943,276.297,276.305        C575.31-768.49,451.358-644.547,299.012-644.547z" style="fill:#E6EAEF;"/><g><linearGradient gradientUnits="userSpaceOnUse" id="SVGID_18_" x1="291.4341" x2="297.4345" y1="-682.8818" y2="-1245.3516"><stop offset="0" style="stop-color:#ADADAD"/><stop offset="0.3008" style="stop-color:#E6E6E6"/><stop offset="0.4958" style="stop-color:#F5F5F5"/><stop offset="0.6864" style="stop-color:#FAFAFA"/><stop offset="1" style="stop-color:#BBBBBB"/></linearGradient><path d="M553.109-923.363         c0,143.104-116.011,259.107-259.117,259.107c-143.094,0-259.102-116.004-259.102-259.107         c0-143.102,116.008-259.098,259.102-259.098C437.098-1182.461,553.109-1066.465,553.109-923.363z" style="fill-rule:evenodd;clip-rule:evenodd;fill:url(#SVGID_18_);"/><linearGradient gradientUnits="userSpaceOnUse" id="SVGID_19_" x1="239.3442" x2="349.9678" y1="-648.5503" y2="-1177.7942"><stop offset="0" style="stop-color:#ADADAD"/><stop offset="0.3008" style="stop-color:#E6E6E6"/><stop offset="0.4958" style="stop-color:#F5F5F5"/><stop offset="0.6864" style="stop-color:#FAFAFA"/><stop offset="1" style="stop-color:#BBBBBB"/></linearGradient><path d="M296.781-630.484c-161.487,0-292.881-131.383-292.881-292.879         c0-161.502,131.395-292.891,292.881-292.891c161.501,0,292.892,131.389,292.892,292.891         C589.673-761.867,458.282-630.484,296.781-630.484z M296.781-1189.973c-147.002,0-266.607,119.574-266.607,266.609         c0,147.006,119.605,266.605,266.607,266.605c147.021,0,266.611-119.6,266.611-266.605         C563.392-1070.398,443.801-1189.973,296.781-1189.973z" style="fill:url(#SVGID_19_);"/><g style="opacity:0.3;"><path d="M510.248-1121.891c3.013,15.77,4.781,31.975,5.156,48.518          c29.212,42.758,46.309,94.414,46.309,150.01c0,147.006-119.591,266.605-266.593,266.605          c-116.084,0-215.054-74.58-251.57-178.326c-12.931-10.01-24.996-21.088-36.078-33.08          c25.891,135.191,145.01,237.68,287.648,237.68c161.483,0,292.866-131.383,292.866-292.879          C587.986-999.9,558.479-1069.646,510.248-1121.891z" style="fill:#232121;"/></g></g></g></g><path d="M161.917-895.461" style="fill:#512616;"/><path d="M160.941-843.172" style="fill:#512616;"/></g><g><g><path d="M154.878-982.167       c44.509-58.874,127.9-70.521,184.473-25.727c2.973,2.354,5.696,5.02,7.291,6.435c-11.77,12.601-23.024,24.648-34.252,36.669       c-43.345-25.355-75.7-25.063-104.78,0.875" style="fill-rule:evenodd;clip-rule:evenodd;fill:#C1272D;"/><path d="M324.977-788.033       c-47.764,25.832-96.219,22.8-140.984-8.395c-16.748-11.67-29.848-26.522-39.116-43.147l42.746-30.569       c14.193,31.576,47.879,51.243,81.124,47.368c12.342-1.438,23.271-4.928,32.458-10.303L324.977-788.033z" style="fill-rule:evenodd;clip-rule:evenodd;fill:#009245;"/><path d="M144.877-839.575       c-24.43-43.823-22.229-99.959,10.001-142.592l52.731,18.253c-26.42,23.567-34.501,61.476-19.986,93.769L144.877-839.575z" style="fill-rule:evenodd;clip-rule:evenodd;fill:#FBB03B;"/></g><path d="M386.153-906.773c-0.26-15.747-1.132-16.141-15.503-16.15      c-32.667-0.022-65.335-0.029-98.003,0.023c-2.347,0.003-4.7,0.133-7.248,0.293c-3.89,1.005-5.506,4.127-6.158,6.901      c0.15,9.414,0.48,18.256-0.264,26.997c-0.901,10.57,3.26,13.438,13.197,13.14c19.356-0.586,38.744-0.172,59.135-0.172      c-3.995,19.078-14.557,33.568-30.105,42.662l23.772,45.046C371.309-813.087,386.983-856.339,386.153-906.773z" style="fill-rule:evenodd;clip-rule:evenodd;fill:#0071BC;"/></g><path d="M455-1018.838v29.962l-17.318,16.487l-0.243-0.006     l-0.674,0.742L420-988.875v-29.962c0-4.966,3.622-9.162,8.588-9.162h16.48C450.034-1028,455-1023.804,455-1018.838z" style="fill-rule:evenodd;clip-rule:evenodd;fill:#C1272D;"/><path d="M455-955.167v29.963c0,4.966-4.966,9.204-9.932,9.204h-16.48     c-4.966,0-8.588-4.238-8.588-9.204v-29.963l16.646-16.486l-0.092,0.007l1.177-0.742L455-955.167z" style="fill-rule:evenodd;clip-rule:evenodd;fill:#009245;"/><rect height="0.01" style="fill-rule:evenodd;clip-rule:evenodd;fill:#020202;" transform="matrix(0.7137 -0.7004 0.7004 0.7137 785.0092 72.9194)" width="0.991" x="481.216" y="-923.891"/><path d="M492-979.887v16.48c0,4.966-3.764,8.407-8.729,8.407H455     v-0.167l-17.318-16.782L454.057-988h29.214C488.236-988,492-984.853,492-979.887z" style="fill-rule:evenodd;clip-rule:evenodd;fill:#0071BC;"/><path d="M436.646-971.217L420-955.167V-955h-30.363     c-4.966,0-10.637-3.44-10.637-8.407v-16.48c0-4.966,5.67-8.113,10.637-8.113h29.962L436.646-971.217z" style="fill-rule:evenodd;clip-rule:evenodd;fill:#FBB03B;"/><rect height="0.01" style="fill-rule:evenodd;clip-rule:evenodd;fill:#020202;" transform="matrix(0.7137 -0.7004 0.7004 0.7137 785.0092 72.9194)" width="0.991" x="481.216" y="-923.891"/><rect height="0.01" style="fill-rule:evenodd;clip-rule:evenodd;fill:#020202;" transform="matrix(0.7137 -0.7004 0.7004 0.7137 785.0092 72.9194)" width="0.991" x="481.216" y="-923.891"/><rect height="0.01" style="fill-rule:evenodd;clip-rule:evenodd;fill:#020202;" transform="matrix(0.7137 -0.7004 0.7004 0.7137 785.0092 72.9194)" width="0.991" x="481.216" y="-923.891"/><path d="M501.313-1080.445     c1.731,12.08,2.644,24.41,2.644,36.977c0,143.088-116.003,259.1-259.106,259.1c-84.032,0-158.713-40.02-206.049-102.031     c17.939,125.586,125.914,222.145,256.457,222.145c143.099,0,259.102-116.004,259.102-259.107     C554.361-982.436,534.591-1036.869,501.313-1080.445z" style="opacity:0.2;fill-rule:evenodd;clip-rule:evenodd;fill:#232121;"/></g><g id="Youtube"><g><g><g><path d="M-311.544,1185.938c-152.349,0-276.297-123.943-276.297-276.289        c0-152.361,123.948-276.305,276.297-276.305c152.346,0,276.297,123.943,276.297,276.305        C-35.247,1061.994-159.198,1185.938-311.544,1185.938z" style="fill:#E6EAEF;"/><g><linearGradient gradientUnits="userSpaceOnUse" id="SVGID_20_" x1="-320.2637" x2="-312.764" y1="1160.7295" y2="647.7551"><stop offset="0" style="stop-color:#631821"/><stop offset="0.1102" style="stop-color:#952432"/><stop offset="0.2288" style="stop-color:#C63042"/><stop offset="0.322" style="stop-color:#D15968"/><stop offset="0.3983" style="stop-color:#DD838E"/><stop offset="0.4619" style="stop-color:#E8ACB3"/><stop offset="0.5254" style="stop-color:#E2969F"/><stop offset="0.6017" style="stop-color:#D76E7B"/><stop offset="0.6949" style="stop-color:#CB4152"/><stop offset="0.8136" style="stop-color:#A82938"/><stop offset="1" style="stop-color:#721C26"/></linearGradient><path d="M-57.447,907.121         c0,143.104-116.011,259.107-259.117,259.107c-143.094,0-259.102-116.004-259.102-259.107         c0-143.102,116.008-259.098,259.102-259.098C-173.458,648.023-57.447,764.02-57.447,907.121z" style="fill-rule:evenodd;clip-rule:evenodd;fill:url(#SVGID_20_);"/><linearGradient gradientUnits="userSpaceOnUse" id="SVGID_21_" x1="-371.2124" x2="-260.5889" y1="1181.9346" y2="652.6907"><stop offset="0" style="stop-color:#631821"/><stop offset="0.1102" style="stop-color:#952432"/><stop offset="0.2288" style="stop-color:#C63042"/><stop offset="0.322" style="stop-color:#D15968"/><stop offset="0.3983" style="stop-color:#DD838E"/><stop offset="0.4619" style="stop-color:#E8ACB3"/><stop offset="0.5254" style="stop-color:#E2969F"/><stop offset="0.6017" style="stop-color:#D76E7B"/><stop offset="0.6949" style="stop-color:#CB4152"/><stop offset="0.8136" style="stop-color:#A82938"/><stop offset="1" style="stop-color:#721C26"/></linearGradient><path d="M-313.776,1200c-161.487,0-292.881-131.383-292.881-292.879         c0-161.502,131.395-292.891,292.881-292.891c161.501,0,292.892,131.389,292.892,292.891         C-20.884,1068.617-152.274,1200-313.776,1200z M-313.776,640.512c-147.002,0-266.607,119.574-266.607,266.609         c0,147.006,119.605,266.605,266.607,266.605c147.021,0,266.611-119.6,266.611-266.605         C-47.165,760.086-166.755,640.512-313.776,640.512z" style="fill:url(#SVGID_21_);"/><g style="opacity:0.3;"><path d="M-100.309,708.594c3.013,15.77,4.781,31.975,5.156,48.518          c29.212,42.758,46.309,94.414,46.309,150.01c0,147.006-119.591,266.605-266.593,266.605          c-116.084,0-215.054-74.58-251.57-178.326c-12.931-10.01-24.996-21.088-36.078-33.08          c25.891,135.191,145.01,237.68,287.648,237.68c161.483,0,292.866-131.383,292.866-292.879          C-22.571,830.584-52.078,760.838-100.309,708.594z" style="fill:#232121;"/></g></g></g></g><path d="M-448.64,935.023" style="fill:#512616;"/><path d="M-449.615,987.313" style="fill:#512616;"/></g><path d="M-109.243,750.039     c1.731,12.08,2.644,24.41,2.644,36.977c0,143.088-116.003,259.1-259.106,259.1c-84.032,0-158.713-40.02-206.049-102.031     c17.939,125.586,125.914,222.145,256.457,222.145c143.099,0,259.102-116.004,259.102-259.107     C-56.195,848.049-75.965,793.615-109.243,750.039z" style="opacity:0.2;fill-rule:evenodd;clip-rule:evenodd;fill:#232121;"/><g id="XMLID_7_"><g><path d="M-161.481,856.763c5.46,45.113,7.24,90.425-1.049,135.371       c-4.365,23.621-17.75,34.436-41.6,35.606c-34.892,1.704-69.799,2.723-103.459,4c-35.957-1.292-70.621-2.251-105.239-3.863       c-30.116-1.414-43.699-13.75-47.851-43.485c-4.563-32.474-4.229-65.146-2.267-97.786c0.669-11.316,1.46-22.755,3.772-33.813       c4.943-23.591,16.67-35.166,40.353-36.032c49.813-1.811,99.672-2.206,149.516-2.586c19.971-0.167,39.972,0.988,59.943,2.084       c7.24,0.396,14.678,1.476,21.538,3.741C-170.379,825.734-163.458,840.428-161.481,856.763z M-341.904,964.253       c27.181-14.799,53.236-28.99,80.249-43.714c-27.135-14.19-53.327-27.896-80.249-41.995       C-341.904,907.55-341.904,935.08-341.904,964.253z" style="fill:#E6EAEF;"/><path d="M-261.655,920.539c-27.013,14.724-53.068,28.915-80.249,43.714c0-29.173,0-56.703,0-85.709       C-314.982,892.644-288.79,906.349-261.655,920.539z" style="fill:#A9505A;"/></g><g/></g></g><g id="Twitter"><g><g><g><path d="M-312.331,575.037c-152.349,0-276.297-123.943-276.297-276.289        c0-152.361,123.948-276.305,276.297-276.305c152.346,0,276.297,123.943,276.297,276.305        C-36.033,451.094-159.984,575.037-312.331,575.037z" style="fill:#E6EAEF;"/><g><linearGradient gradientUnits="userSpaceOnUse" id="SVGID_22_" x1="-321.0503" x2="-313.5506" y1="549.8291" y2="36.8552"><stop offset="1.000000e-008" style="stop-color:#00BFBF"/><stop offset="0.1653" style="stop-color:#00FFFF"/><stop offset="0.3136" style="stop-color:#66FFFF"/><stop offset="0.4703" style="stop-color:#99FFFF"/><stop offset="0.6314" style="stop-color:#72FFFF"/><stop offset="0.8051" style="stop-color:#13FFFF"/><stop offset="1" style="stop-color:#00CACA"/></linearGradient><path d="M-58.233,296.221         c0,143.104-116.011,259.107-259.117,259.107c-143.094,0-259.102-116.004-259.102-259.107         c0-143.102,116.008-259.098,259.102-259.098C-174.245,37.123-58.233,153.119-58.233,296.221z" style="fill-rule:evenodd;clip-rule:evenodd;fill:url(#SVGID_22_);"/><linearGradient gradientUnits="userSpaceOnUse" id="SVGID_23_" x1="-371.998" x2="-261.3746" y1="571.0342" y2="41.7908"><stop offset="1.000000e-008" style="stop-color:#00BFBF"/><stop offset="0.1653" style="stop-color:#00FFFF"/><stop offset="0.3136" style="stop-color:#66FFFF"/><stop offset="0.4703" style="stop-color:#99FFFF"/><stop offset="0.6314" style="stop-color:#72FFFF"/><stop offset="0.8051" style="stop-color:#13FFFF"/><stop offset="1" style="stop-color:#00CACA"/></linearGradient><path d="M-314.562,589.1c-161.487,0-292.881-131.383-292.881-292.879         c0-161.502,131.395-292.891,292.881-292.891c161.501,0,292.892,131.389,292.892,292.891         C-21.67,457.717-153.061,589.1-314.562,589.1z M-314.562,29.611c-147.002,0-266.607,119.574-266.607,266.609         c0,147.006,119.605,266.605,266.607,266.605c147.021,0,266.611-119.6,266.611-266.605         C-47.951,149.186-167.542,29.611-314.562,29.611z" style="fill:url(#SVGID_23_);"/><g style="opacity:0.3;"><path d="M-101.095,97.693c3.013,15.77,4.781,31.975,5.156,48.518          c29.212,42.758,46.309,94.414,46.309,150.01c0,147.006-119.591,266.605-266.593,266.605          c-116.084,0-215.054-74.58-251.57-178.326c-12.931-10.01-24.996-21.088-36.078-33.08          c25.891,135.191,145.01,237.68,287.648,237.68c161.483,0,292.866-131.383,292.866-292.879          C-23.357,219.684-52.864,149.938-101.095,97.693z" style="fill:#232121;"/></g></g></g></g><path d="M-449.426,324.123" style="fill:#512616;"/><path d="M-450.401,376.412" style="fill:#512616;"/></g><path d="M-472.166,410.568c37.853,2.795,70.537-5.633,101.39-28.137     c-20.91-2.531-37.638-9.77-49.853-24.666c-5.76-7.031-9.886-15.396-15.745-24.721c10.817,0,18.961,0,27.092,0     c-30.638-13.686-48.337-35.697-50.171-70.281c9.832,2.879,18.846,5.512,27.86,8.145c0.384-0.516,0.771-1.029,1.151-1.543     c-17.829-14.199-27.216-32.588-28.432-55.053c-0.618-11.396,3.296-26.195,10.2-37.063     c37.511,43.539,84.367,68.537,142.332,72.713c0-7.844-0.603-14.813,0.104-21.637c2.905-28.027,17.399-48.313,43.391-58.859     c25.911-10.498,50.612-6.539,72.183,11.582c4.877,4.092,8.899,5.211,14.536,3.039c11.317-4.367,22.718-8.527,35.474-13.293     c-4.801,14.844-13.742,25.873-25.573,34.959c0.303,0.639,0.599,1.26,0.906,1.889c10.971-3.146,21.938-6.293,32.917-9.447     c0.48,0.33,0.967,0.66,1.455,0.99c-7.41,8.197-13.941,17.498-22.468,24.299c-9.152,7.314-12,15.104-12.491,26.785     c-3.573,85.068-60.471,165.887-149.884,186.578c-53.395,12.35-104.191,5.266-151.765-22.51     C-468.57,413.738-469.402,412.84-472.166,410.568z" style="fill-rule:evenodd;clip-rule:evenodd;fill:#FFFFFF;"/><path d="M-110.029,139.139     c1.731,12.08,2.644,24.41,2.644,36.977c0,143.088-116.003,259.1-259.106,259.1c-84.032,0-158.713-40.02-206.049-102.031     c17.939,125.586,125.914,222.145,256.457,222.145c143.099,0,259.102-116.004,259.102-259.107     C-56.981,237.148-76.751,182.715-110.029,139.139z" style="opacity:0.2;fill-rule:evenodd;clip-rule:evenodd;fill:#232121;"/></g><g id="Facebook"><g><g><g><path d="M-312.352-34.128c-152.349,0-276.297-123.943-276.297-276.29        c0-152.361,123.948-276.305,276.297-276.305c152.346,0,276.297,123.944,276.297,276.305        C-36.055-158.072-160.005-34.128-312.352-34.128z" style="fill:#E6EAEF;"/><g><linearGradient gradientUnits="userSpaceOnUse" id="SVGID_24_" x1="-375.7188" x2="-261.7245" y1="-39.603" y2="-573.5755"><stop offset="0" style="stop-color:#00558D"/><stop offset="0.2119" style="stop-color:#0071BC"/><stop offset="0.3517" style="stop-color:#338DC9"/><stop offset="0.8644" style="stop-color:#083654"/></linearGradient><path d="M-58.255-312.945         c0,143.102-116.011,259.106-259.116,259.106c-143.094,0-259.102-116.004-259.102-259.106         c0-143.102,116.008-259.098,259.102-259.098C-174.266-572.042-58.255-456.046-58.255-312.945z" style="fill-rule:evenodd;clip-rule:evenodd;fill:url(#SVGID_24_);"/><linearGradient gradientUnits="userSpaceOnUse" id="SVGID_25_" x1="-373.0547" x2="-259.0601" y1="-39.0342" y2="-573.0079"><stop offset="0" style="stop-color:#00558D"/><stop offset="0.2119" style="stop-color:#0071BC"/><stop offset="0.3517" style="stop-color:#338DC9"/><stop offset="0.8644" style="stop-color:#083654"/></linearGradient><path d="M-314.583-20.067c-161.487,0-292.881-131.383-292.881-292.878         c0-161.502,131.395-292.892,292.881-292.892c161.501,0,292.892,131.39,292.892,292.892         C-21.691-151.45-153.082-20.067-314.583-20.067z M-314.583-579.556c-147.002,0-266.607,119.576-266.607,266.611         c0,147.006,119.605,266.604,266.607,266.604c147.021,0,266.611-119.599,266.611-266.604         C-47.972-459.98-167.563-579.556-314.583-579.556z" style="fill:url(#SVGID_25_);"/><g style="opacity:0.3;"><path d="M-101.116-511.474c3.013,15.77,4.78,31.975,5.156,48.518          c29.212,42.758,46.309,94.415,46.309,150.011c0,147.006-119.591,266.604-266.593,266.604          c-116.084,0-215.054-74.579-251.57-178.325c-12.931-10.011-24.996-21.088-36.078-33.08          c25.891,135.191,145.01,237.679,287.648,237.679c161.483,0,292.866-131.383,292.866-292.878          C-23.378-389.482-52.886-459.229-101.116-511.474z" style="fill:#232121;"/></g></g></g></g><path d="M-449.447-285.043" style="fill:#512616;"/><path d="M-450.422-232.753" style="fill:#512616;"/></g><g><path d="M-364.514-139.311c0-57.065,0-114.071,0-171.876      c-11.323,0-21.784-0.271-32.216,0.099c-6.121,0.218-8.387-1.077-8.178-7.036c0.546-15.615,0.18-31.25,0.176-46.876      c0-2.002,0-4.002,0-6.818c11.149,0,21.624-0.386,32.037,0.143c6.634,0.333,8.017-1.778,8.074-7.238      c0.156-16.141-0.344-32.44,1.895-48.4c4.614-32.814,23.606-50.737,61.543-55.34c25.422-3.08,51.502-1.917,77.845-2.664      c0.172,3.239,0.367,5.215,0.37,7.191c0.019,15.629-0.28,31.268,0.164,46.89c0.158,5.602-1.506,7.489-8.001,7.29      c-11.135-0.344-22.308-0.109-33.45,0.304c-12.46,0.466-17.934,5.394-18.326,16.343c-0.366,10.041-0.127,20.093-0.467,30.13      c-0.134,4.071,1.305,5.516,6.11,5.44c15.569-0.249,31.15-0.09,46.729-0.09c2.258,0,4.521,0,7.706,0      c-0.759,7.8-1.369,14.949-2.161,22.074c-1.133,10.156-2.457,20.292-3.585,30.455c-0.898,8.087-0.824,8.097-10.299,8.104      c-14.5,0-28.993,0-44.398,0c0,57.422,0,114.417,0,171.876C-310.435-139.311-337.024-139.311-364.514-139.311z" style="fill-rule:evenodd;clip-rule:evenodd;fill:#FFFFFF;"/></g><path d="M-110.05-470.027     c1.731,12.08,2.644,24.41,2.644,36.976c0,143.088-116.003,259.099-259.106,259.099c-84.032,0-158.713-40.019-206.049-102.031     c17.939,125.587,125.914,222.145,256.457,222.145c143.099,0,259.102-116.004,259.102-259.106     C-57.003-372.018-76.772-426.451-110.05-470.027z" style="opacity:0.2;fill-rule:evenodd;clip-rule:evenodd;fill:#232121;"/></g><g id="Instagram"><g><g><g><path d="M-311.104-643.062c-152.349,0-276.297-123.943-276.297-276.29        c0-152.361,123.948-276.305,276.297-276.305c152.346,0,276.297,123.944,276.297,276.305        C-34.807-767.005-158.758-643.062-311.104-643.062z" style="fill:#E6EAEF;"/><g><linearGradient gradientUnits="userSpaceOnUse" id="SVGID_26_" x1="-373.5571" x2="-262.9352" y1="-647.0684" y2="-1176.3043"><stop offset="0.1271" style="stop-color:#FCEB22"/><stop offset="0.1864" style="stop-color:#FBDE21"/><stop offset="0.3517" style="stop-color:#F7931E"/><stop offset="0.6017" style="stop-color:#F489E9"/><stop offset="1" style="stop-color:#3F0054"/></linearGradient><path d="M-57.007-921.878         c0,143.102-116.011,259.106-259.117,259.106c-143.094,0-259.102-116.004-259.102-259.106         c0-143.102,116.008-259.098,259.102-259.098C-173.018-1180.976-57.007-1064.979-57.007-921.878z" style="fill-rule:evenodd;clip-rule:evenodd;fill:url(#SVGID_26_);"/><linearGradient gradientUnits="userSpaceOnUse" id="SVGID_27_" x1="-370.7725" x2="-260.1489" y1="-647.0654" y2="-1176.3093"><stop offset="0.1271" style="stop-color:#FCEB22"/><stop offset="0.1864" style="stop-color:#FBDE21"/><stop offset="0.3517" style="stop-color:#F7931E"/><stop offset="0.6017" style="stop-color:#F489E9"/><stop offset="1" style="stop-color:#3F0054"/></linearGradient><path d="M-313.335-629c-161.487,0-292.881-131.383-292.881-292.878         c0-161.502,131.395-292.892,292.881-292.892c161.501,0,292.892,131.39,292.892,292.892         C-20.443-760.383-151.834-629-313.335-629z M-313.335-1188.489c-147.002,0-266.607,119.576-266.607,266.611         c0,147.006,119.605,266.604,266.607,266.604c147.021,0,266.611-119.599,266.611-266.604         C-46.724-1068.913-166.315-1188.489-313.335-1188.489z" style="fill:url(#SVGID_27_);"/><g style="opacity:0.3;"><path d="M-99.869-1120.407c3.013,15.77,4.781,31.975,5.156,48.518          c29.212,42.758,46.309,94.415,46.309,150.011c0,147.006-119.591,266.604-266.593,266.604          c-116.084,0-215.054-74.579-251.57-178.325c-12.931-10.011-24.996-21.088-36.078-33.08          C-576.754-731.487-457.635-629-314.997-629C-153.513-629-22.13-760.383-22.13-921.878          C-22.13-998.415-51.638-1068.162-99.869-1120.407z" style="fill:#232121;"/></g></g></g></g><path d="M-448.199-893.976" style="fill:#512616;"/><path d="M-449.175-841.687" style="fill:#512616;"/></g><g><g><path d="M-447.893-907.196c0,33.844,0.712,67.703-0.243,101.529       c-0.68,24.68,18.149,42.782,41.788,42.523c67.21-0.728,134.424-0.218,201.638-0.3c4.426-0.024,9.023-0.193,13.261-1.366       c17.918-4.929,28.12-19.605,28.14-40.26c0.076-68.154-0.388-136.342,0.264-204.481c0.225-23.856-17.997-41.948-41.076-41.73       c-67.442,0.63-134.888,0.694-202.338-0.033c-23.526-0.259-42.376,17.688-41.676,42.586       C-447.177-974.932-447.893-941.04-447.893-907.196z" style="fill-rule:evenodd;clip-rule:evenodd;fill:#D0BDAF;"/><g id="XMLID_6_"><g><path d="M-415.163-1044.889c-1.019,1.044-1.472,2.833-1.43,5.637c0.142,10.602,0.127,21.562,0.113,30.89         c-0.028,7.225-0.042,16.74,0.071,26.312c0.028,2.976-0.524,4.936-1.713,6.152c-1.246,1.23-3.128,1.731-5.875,1.56         c-1.954-0.114-4.034-0.171-6.526-0.171c-1.869,0-3.553,0.028-5.139,0.057c-0.679,0.014-1.359,0.028-2.053,0.028         c-1.005,0.015-2.038,0.029-3.072,0.029v7.74c0,11.446,0.014,22.878,0.042,34.31l0.042,17.941         c0.085,35.625,0.17,72.453-0.326,108.608c-0.127,9.815,3.298,18.814,9.641,25.338c6.37,6.524,15.26,10.13,25.042,10.13h0.396         c27.746-0.258,55.704-0.372,90.655-0.372c15.628,0,31.243,0.014,46.843,0.029c14.708,0.028,29.883,0.057,44.832,0.057         c6.186,0,12.386-0.015,18.587-0.015c3.851,0,7.927-0.1,11.679-1.173c14.552-4.106,22.904-16.024,22.933-32.707         c0.071-49.575,0.042-99.222,0.014-147.238v-15.781c0-1.488-0.099-2.962-0.212-4.536c-0.014-0.286-0.042-0.572-0.057-0.873         c-0.028-0.286-0.042-0.572-0.071-0.844c-0.764-0.086-1.5-0.129-2.222-0.186l-0.949-0.071         c-1.982-0.172-3.85-0.344-5.705-0.344h-18.021c-4.317,0.043-8.706,0.043-12.938,0.043c-10.107,0-19.436-0.071-27.731-0.229         c-4.134-0.1-8.961-1.645-12.599-4.02c-17.256-11.46-35.291-17.284-53.623-17.284c-6.767,0-13.675,0.787-20.541,2.332         c-6.115,1.359-12.004,3.419-18.247,5.594l-1.557,0.544c-2.52,0.873-5.125,1.774-7.757,2.632         c-0.227,0.057-0.425,0-0.552-0.143c-0.142-0.1-0.227-0.257-0.227-0.443c0-2.575,0-5.151,0-7.726         c0-2.561-0.014-5.122-0.014-7.683v-4.493c-0.028-11.561-0.057-23.521,0.071-35.239c0.057-2.375-0.312-3.877-1.161-4.736         c-0.821-0.83-2.208-1.216-4.346-1.216h-0.354c-10.164,0.128-19.776,0.243-28.978,0.243c-7.574,0-14.736-0.057-21.262-0.186         h-0.368C-412.516-1046.391-414.158-1045.919-415.163-1044.889z M-416.663-982.05c-0.099-8.785-0.099-17.699-0.071-26.312         c0.028-10.144,0.028-20.617-0.113-30.89c-0.042-2.89,0.425-4.707,1.5-5.809c1.047-1.073,2.746-1.574,5.521-1.574h0.368         c6.794,0.128,13.943,0.186,21.262,0.186c9.06,0,18.53-0.115,28.978-0.243h0.354c2.208,0,3.652,0.415,4.516,1.288         c0.906,0.901,1.302,2.432,1.246,4.907c-0.156,13.234-0.099,26.684-0.071,39.732c0,5.122,0.014,10.258,0.014,15.409         c0,0.114,0.057,0.214,0.142,0.257c0.071,0.115,0.212,0.115,0.312,0.086c3.015-0.973,5.988-2.017,8.875-3.019         c6.385-2.232,12.429-4.364,18.7-5.751c6.937-1.56,13.845-2.332,20.597-2.332c18.375,0,36.466,5.823,53.765,17.312         c3.596,2.361,8.352,3.892,12.458,3.992c10.164,0.186,20.158,0.229,27.731,0.229c4.304,0,8.621,0,12.938-0.043         c6.017,0,12.033,0,18.021,0c1.968,0,3.949,0.186,6.044,0.372c1.005,0.071,2.01,0.129,3.072,0.243         c0.042,0.644,0.099,1.302,0.142,1.932c0.113,1.631,0.212,3.062,0.212,4.55v15.781c0.028,48.245,0.057,98.149-0.014,147.238         c-0.028,16.783-8.465,28.815-23.117,32.95c-3.851,1.102-8.083,1.173-11.75,1.173c-21.164,0.043-42.284,0-63.419-0.043         c-15.6-0.015-31.214-0.029-46.843-0.029c-36.48,0-64.438,0.129-90.655,0.372h-0.396c-9.838,0-18.785-3.605-25.226-10.201         c-6.385-6.567-9.838-15.609-9.711-25.51c0.524-38.344,0.396-77.375,0.312-115.089c-0.028-15.266-0.071-30.503-0.071-45.77         v-7.983c1.854,0,3.638-0.043,5.379-0.057c1.755-0.043,3.468-0.058,5.139-0.058c2.534,0,4.629,0.058,6.54,0.172         c2.69,0.157,4.501-0.329,5.677-1.488C-417.159-977.243-416.635-979.16-416.663-982.05z"/><path d="M-304.533-996.358c18.431,0,36.565,5.837,53.906,17.341c3.553,2.346,8.281,3.863,12.316,3.963         c8.31,0.143,17.638,0.229,27.731,0.229c4.233,0,8.621,0,12.938-0.043h18.021c1.883,0,3.751,0.157,5.747,0.343l0.935,0.072         c0.792,0.043,1.614,0.1,2.463,0.2c0.113,0.014,0.212,0.1,0.227,0.229c0.014,0.343,0.042,0.701,0.071,1.044         c0.028,0.3,0.042,0.601,0.071,0.887c0.099,1.574,0.212,3.062,0.212,4.564v15.781c0.028,48.016,0.057,97.663-0.014,147.238         c-0.028,16.926-8.522,29.016-23.301,33.193c-3.822,1.087-7.928,1.173-11.82,1.173c-6.201,0.014-12.387,0.028-18.587,0.028         c-14.949,0-30.124-0.028-44.818-0.071c-15.614-0.014-31.229-0.029-46.857-0.029c-34.951,0-62.909,0.115-90.655,0.372h-0.396         c-9.909,0-18.927-3.648-25.41-10.273c-6.427-6.61-9.909-15.738-9.782-25.682c0.495-36.155,0.41-72.982,0.325-108.608         l-0.028-17.941c-0.028-11.432-0.057-22.863-0.057-34.31v-7.983c0-0.143,0.113-0.243,0.255-0.243         c1.133,0,2.237-0.029,3.313-0.043c0.694,0,1.388-0.014,2.067-0.014c1.585-0.043,3.27-0.058,5.139-0.058         c2.506,0,4.586,0.043,6.554,0.172c2.577,0.143,4.36-0.315,5.493-1.417c1.09-1.13,1.585-2.976,1.557-5.809         c-0.099-9.572-0.085-19.086-0.071-26.312c0.028-9.329,0.042-20.288-0.113-30.89c-0.042-2.976,0.439-4.821,1.571-5.98         c1.118-1.145,2.874-1.645,5.705-1.645h0.368c6.54,0.114,13.688,0.186,21.262,0.186c9.201,0,18.799-0.129,28.978-0.244h0.354         c2.279,0,3.78,0.429,4.7,1.359c0.962,0.958,1.373,2.533,1.316,5.079c-0.142,11.718-0.113,23.679-0.085,35.239l0.014,4.493         c0,2.561,0,5.122,0,7.683c0,2.575,0.014,5.151,0.014,7.726c0.042,0.014,0.071,0.086,0.099,0.129         c2.647-0.873,5.238-1.774,7.757-2.647l1.571-0.544c6.243-2.189,12.146-4.249,18.29-5.608         C-318.279-995.571-311.342-996.358-304.533-996.358z M-354.348-1045.404c-0.864-0.873-2.308-1.288-4.516-1.288h-0.354         c-10.447,0.128-19.918,0.243-28.978,0.243c-7.319,0-14.468-0.058-21.262-0.186h-0.368c-2.775,0-4.474,0.5-5.521,1.574         c-1.076,1.102-1.543,2.919-1.5,5.809c0.142,10.273,0.142,20.746,0.113,30.89c-0.028,8.613-0.028,17.526,0.071,26.312         c0.028,2.89-0.496,4.807-1.642,5.98c-1.175,1.159-2.987,1.645-5.677,1.488c-1.911-0.114-4.006-0.172-6.54-0.172         c-1.67,0-3.383,0.015-5.139,0.058c-1.741,0.014-3.525,0.057-5.379,0.057v7.983c0,15.266,0.042,30.503,0.071,45.77         c0.085,37.714,0.212,76.745-0.312,115.089c-0.127,9.901,3.327,18.943,9.711,25.51c6.441,6.596,15.388,10.201,25.226,10.201         h0.396c26.217-0.243,54.175-0.372,90.655-0.372c15.628,0,31.243,0.014,46.843,0.029c21.135,0.043,42.255,0.086,63.419,0.043         c3.667,0,7.899-0.072,11.75-1.173c14.651-4.135,23.088-16.167,23.117-32.95c0.071-49.089,0.042-98.993,0.014-147.238v-15.781         c0-1.488-0.099-2.919-0.212-4.55c-0.042-0.629-0.099-1.288-0.142-1.932c-1.062-0.114-2.067-0.172-3.072-0.243         c-2.095-0.186-4.077-0.372-6.044-0.372c-5.988,0-12.004,0-18.021,0c-4.317,0.043-8.635,0.043-12.938,0.043         c-7.573,0-17.567-0.043-27.731-0.229c-4.105-0.1-8.862-1.631-12.458-3.992c-17.299-11.489-35.39-17.312-53.765-17.312         c-6.752,0-13.661,0.772-20.597,2.332c-6.271,1.388-12.315,3.52-18.7,5.751c-2.888,1.002-5.86,2.046-8.875,3.019         c-0.099,0.029-0.241,0.029-0.312-0.086c-0.085-0.043-0.142-0.143-0.142-0.257c0-5.151-0.014-10.287-0.014-15.409         c-0.028-13.048-0.085-26.498,0.071-39.732C-353.046-1042.972-353.442-1044.502-354.348-1045.404z"/><path d="M-388.195-1047.393c8.678,0,18.162-0.1,28.978-0.286h0.354c2.478,0,4.12,0.5,5.195,1.574         c1.104,1.145,1.585,2.876,1.557,5.608c-0.156,10.73-0.142,21.69-0.142,32.263l0.014,7.469         c0.028,4.807,0.042,9.715,0.042,14.565c2.718-0.901,5.464-1.86,8.041-2.747c6.427-2.261,12.471-4.378,18.841-5.766         c6.823-1.574,13.816-2.361,20.781-2.361c18.559,0,36.82,5.866,54.303,17.455c3.44,2.261,8.012,3.749,11.919,3.863         c10.164,0.201,20.314,0.201,27.731,0.201l17.412-0.015c4.516-0.028,9.017-0.043,13.547,0c1.486,0,2.916,0.1,4.431,0.215         c0.552,0.028,1.118,0.071,1.685,0.114c1.033,0.1,2.194,0.215,3.355,0.258c0.354,0.071,0.566,0.314,0.566,0.601         c0.042,0.601,0.085,1.173,0.127,1.731l0.042,0.486c0.127,1.703,0.226,3.133,0.226,4.636v15.781         c0.028,48.044,0.057,97.734-0.028,147.238c-0.014,17.298-8.691,29.631-23.782,33.866c-3.992,1.116-8.295,1.202-12.033,1.202         c-15.841,0.042-31.667,0.028-47.494,0l-15.925-0.015c-6.257,0-12.514-0.014-18.771-0.014         c-9.343-0.014-18.714-0.043-28.072-0.043c-36.041,0-63.999,0.114-90.655,0.358h-0.396c-10.107,0-19.309-3.706-25.906-10.459         c-6.568-6.739-10.122-16.039-9.994-26.183c0.496-35.396,0.411-71.48,0.354-106.376l-0.028-8.713         c0-5.093-0.014-10.187-0.028-15.266c-0.028-10.172-0.057-20.331-0.057-30.503v-8.355c0-0.329,0.283-0.601,0.623-0.601         c1.005,0,1.981-0.014,2.944-0.014c0.934,0,1.854,0,2.76,0c1.939-0.071,3.879-0.071,5.153-0.071         c2.661,0,4.827,0.071,6.583,0.157c2.407,0.157,3.964-0.229,4.94-1.188c0.949-1.03,1.401-2.761,1.373-5.322         c-0.071-7.197-0.071-14.522-0.071-21.604v-4.707c0.028-9.858,0.042-20.431-0.127-30.89c-0.028-3.176,0.524-5.193,1.77-6.496         c1.246-1.273,3.101-1.817,6.229-1.817h0.368C-402.706-1047.45-395.557-1047.393-388.195-1047.393z M-354.022-1045.762         c-0.977-0.973-2.506-1.431-4.842-1.431h-0.354c-10.815,0.2-20.286,0.286-28.978,0.286c-7.361,0-14.51-0.057-21.262-0.172         h-0.368c-2.973,0-4.728,0.501-5.861,1.674c-1.161,1.216-1.656,3.104-1.628,6.152c0.156,10.459,0.156,21.032,0.127,30.89         v4.707c-0.014,7.082-0.014,14.408,0.071,21.604c0.028,2.689-0.481,4.535-1.529,5.666c-1.09,1.073-2.803,1.517-5.323,1.331         c-1.755-0.071-3.893-0.157-6.554-0.157c-1.274,0-3.199,0.014-5.139,0.071c-0.92,0-1.84,0.015-2.774,0.015         c-0.963,0-1.939,0-2.944,0c-0.071,0-0.113,0.071-0.113,0.114v8.355c0,10.173,0.014,20.331,0.042,30.503         c0.014,5.079,0.028,10.173,0.042,15.266l0.014,8.713c0.07,34.896,0.141,70.979-0.34,106.376         c-0.127,10.015,3.369,19.187,9.853,25.839s15.558,10.315,25.538,10.315h0.396c26.642-0.257,54.614-0.357,90.655-0.357         c9.357,0,18.729,0.014,28.072,0.028c6.257,0,12.514,0.015,18.771,0.029l15.925,0.014c15.827,0.015,31.653,0.029,47.494,0         c3.695,0,7.97-0.1,11.891-1.202c14.864-4.164,23.4-16.325,23.414-33.379c0.085-49.504,0.057-99.193,0.028-147.238v-15.781         c0-1.488-0.099-2.904-0.227-4.607l-0.028-0.472c-0.042-0.572-0.085-1.13-0.142-1.76c0-0.072-0.057-0.115-0.113-0.129         c-1.132-0.029-2.308-0.143-3.341-0.258c-0.566-0.028-1.118-0.071-1.685-0.1c-1.5-0.114-2.93-0.214-4.388-0.229         c-4.516-0.028-9.032-0.014-13.547,0l-4.474,0.015h-12.938c-7.417,0-17.567,0-27.731-0.2         c-4.021-0.115-8.692-1.617-12.203-3.92c-17.384-11.546-35.56-17.398-54.02-17.398c-6.922,0-13.873,0.801-20.668,2.361         c-6.342,1.388-12.386,3.505-18.771,5.737c-2.704,0.944-5.563,1.932-8.395,2.875c-0.085,0.015-0.17,0-0.227-0.042         c-0.071-0.043-0.113-0.115-0.113-0.201c0-4.964-0.014-9.972-0.042-14.908v-7.469c-0.014-10.587-0.014-21.533,0.127-32.263         C-352.593-1043.086-353.018-1044.717-354.022-1045.762z"/></g><g/></g><path d="M-185.545-1011.813c-0.155,3.313,0.56,7.007-0.619,9.907       c-4.534,11.12-14.521,5.859-22.315,6.667c-5.656,0.583-9.551-2.787-10.014-8.735c-0.408-5.22-0.496-10.529,0.015-15.709       c0.78-7.968,5.302-9.568,22.763-8.712c6.957,0.323,9.719,3.112,10.016,10.118c0.084,2.157,0.007,4.307,0.007,6.441       C-185.636-1011.837-185.597-1011.813-185.545-1011.813z" style="fill-rule:evenodd;clip-rule:evenodd;fill:#FFFFFF;"/><path d="M-227.353-898.801       c1.635,39.177-31.926,79.687-79.328,79.089c-45.81-0.598-77.808-40.131-77.5-79.857c0.304-38.901,30.623-79.299,78.967-79.089       C-257.421-978.463-225.758-938.357-227.353-898.801z" style="fill-rule:evenodd;clip-rule:evenodd;fill:#AA8F7D;"/><g id="XMLID_5_"><g><path d="M-305.552-883.973c0.057,0,0.127,0,0.184,0c-0.042,0.057-0.099,0.1-0.184,0.114c-0.014,0-0.014,0-0.028,0         c0,0,0,0-0.014,0c-0.085,0-0.156-0.043-0.198-0.114c0.071,0,0.142,0,0.212,0H-305.552z"/><path d="M-253.119-949.973c13.066,13.921,20.371,32.993,19.536,50.992         c-0.071,40.905-31.865,72.939-72.366,72.939h-0.368c-39.467-0.157-70.837-32.521-71.431-73.698         c-0.255-18.428,7.602-37.628,20.993-51.364c9.484-9.715,26.033-21.275,51.104-21.275h0.438         C-285.111-972.25-266.609-964.295-253.119-949.973z M-290.391-899.067c0.085-8.771-6.441-15.824-14.85-16.067         c-8.366-0.215-15.401,6.796-15.557,15.438c-0.085,4.693,1.458,8.914,4.332,11.861c2.789,2.847,6.554,4.35,10.886,4.35h0.028         C-296.705-883.486-290.462-889.882-290.391-899.067z" style="fill:#577D94;"/><path d="M-320.289-899.697c0.142-8.241,6.738-14.951,14.694-14.951c0.113,0,0.227,0,0.339,0         c8.14,0.243,14.439,7.082,14.354,15.581c-0.071,8.813-6.002,15.009-14.467,15.095c0.028-0.029,0.042-0.058,0.042-0.101         v-0.114c8.324-0.143,14.156-6.238,14.212-14.88c0.071-8.355-6.144-15.094-14.156-15.337h-0.368         c-7.8,0-14.27,6.596-14.425,14.708c-0.085,4.536,1.373,8.584,4.091,11.389c2.604,2.647,6.101,4.063,10.136,4.121v0.086         c0,0.043,0.014,0.1,0.042,0.129c-4.105-0.058-7.659-1.502-10.306-4.207C-318.887-891.041-320.374-895.133-320.289-899.697z"/><path d="M-320.798-899.697c0.156-8.642,7.191-15.652,15.557-15.438c8.409,0.243,14.935,7.296,14.85,16.067         c-0.071,9.186-6.314,15.581-15.161,15.581h-0.028c-4.332,0-8.098-1.502-10.886-4.35         C-319.34-890.783-320.883-895.004-320.798-899.697z M-305.27-914.777c-8.168-0.186-14.991,6.639-15.146,15.08         c-0.071,4.65,1.43,8.785,4.247,11.661c2.689,2.718,6.342,4.164,10.575,4.178c0.014,0,0.014,0,0.014,0         c0.014,0,0.014,0,0.028,0c8.635,0,14.722-6.252,14.807-15.209C-290.674-907.637-297.059-914.534-305.27-914.777z"/><path d="M-291.113-899.067c-0.057,8.642-5.889,14.737-14.212,14.88v0.114c0,0.043-0.014,0.072-0.042,0.101         c-0.057,0-0.127,0-0.184,0h-0.028c-0.071,0-0.142,0-0.212,0c-0.028-0.029-0.042-0.086-0.042-0.129v-0.086         c-4.035-0.057-7.531-1.474-10.136-4.121c-2.718-2.804-4.176-6.853-4.091-11.389c0.156-8.112,6.625-14.708,14.425-14.708         h0.368C-297.257-914.162-291.042-907.423-291.113-899.067z M-315.815-888.394c2.604,2.647,6.158,4.049,10.263,4.049         c8.338,0,14.212-6.052,14.297-14.723c0.071-8.298-6.087-14.98-14.029-15.223c-0.099,0-0.198,0-0.311,0         c-7.758,0-14.185,6.553-14.312,14.594C-319.992-895.176-318.534-891.155-315.815-888.394z"/><path d="M-305.595-914.648c-7.956,0-14.553,6.71-14.694,14.951c-0.085,4.564,1.402,8.656,4.19,11.518         c2.647,2.704,6.2,4.149,10.306,4.207c0.042,0.071,0.113,0.114,0.198,0.114c-4.233-0.014-7.885-1.459-10.575-4.178         c-2.817-2.876-4.317-7.011-4.247-11.661c0.155-8.441,6.979-15.266,15.146-15.08c8.211,0.243,14.595,7.14,14.524,15.709         c-0.085,8.957-6.172,15.209-14.807,15.209c0.085-0.014,0.142-0.057,0.184-0.114c8.465-0.086,14.396-6.281,14.467-15.095         c0.085-8.499-6.214-15.337-14.354-15.581C-305.368-914.648-305.481-914.648-305.595-914.648z"/><path d="M-291.255-899.067c-0.085,8.67-5.959,14.723-14.297,14.723c-4.105,0-7.659-1.402-10.263-4.049         c-2.718-2.761-4.176-6.782-4.091-11.303c0.127-8.041,6.554-14.594,14.312-14.594c0.113,0,0.212,0,0.311,0         C-297.342-914.047-291.184-907.366-291.255-899.067z M-305.552-884.674c8.154-0.043,13.873-5.966,13.929-14.394         c0.071-8.083-5.931-14.608-13.661-14.851h-0.354c-7.531,0-13.788,6.381-13.916,14.222c-0.085,4.407,1.316,8.327,3.95,11.045         c2.548,2.59,6.016,3.978,10.022,3.978C-305.566-884.674-305.566-884.674-305.552-884.674z"/></g><g/></g><g id="XMLID_4_"><g><path d="M-304.776-936.586c19.81,0.522,35.141,17.167,34.935,37.885         c-0.172,21.554-14.814,36.631-35.624,36.667h-0.069c-10.232,0-19.052-3.482-25.529-10.063         c-6.787-6.929-10.439-16.923-10.232-28.135C-340.951-920.603-324.482-937.108-304.776-936.586z M-270.083-898.701         c0.207-20.683-14.952-37.119-34.693-37.641c-19.431-0.522-35.934,15.913-36.278,36.109         c-0.379,22.424,14.229,37.989,35.589,37.954C-284.759-862.313-270.255-877.251-270.083-898.701z" style="fill:#415E6F;"/><path d="M-304.776-936.342c19.741,0.522,34.9,16.958,34.693,37.641         c-0.172,21.45-14.677,36.388-35.382,36.422c-21.36,0.035-35.968-15.53-35.589-37.954         C-340.709-920.429-324.207-936.864-304.776-936.342z M-270.324-898.701c0.207-20.439-14.952-36.875-34.452-37.397         c-0.31,0-0.62,0-0.896,0c-19.052,0-34.797,16.087-35.142,35.865c-0.172,11.107,3.411,20.962,10.095,27.787         c6.408,6.477,15.09,9.924,25.185,9.924h0.069C-284.966-862.557-270.496-877.426-270.324-898.701z" style="fill:#415E6F;"/><path d="M-304.776-936.098c19.5,0.522,34.659,16.958,34.452,37.397         c-0.172,21.275-14.642,36.144-35.141,36.179h-0.069c-10.095,0-18.776-3.447-25.185-9.924         c-6.684-6.825-10.267-16.679-10.095-27.787c0.345-19.778,16.089-35.865,35.142-35.865         C-305.396-936.098-305.086-936.098-304.776-936.098z" style="fill:#415E6F;"/></g><g/></g><g id="XMLID_3_"><g><path d="M-305.27-914.534c8.112,0.243,14.34,6.982,14.27,15.466         c-0.085,8.856-6.03,14.966-14.552,14.966c-8.763,0-14.765-6.367-14.609-15.595         C-320.02-907.966-313.239-914.72-305.27-914.534z" style="fill:#233A48;"/></g><g/></g><g><path d="M-447.893-907.196c0-33.843,0.716-67.736-0.243-101.53        c-0.701-24.898,18.149-42.846,41.676-42.586c67.45,0.727,134.896,0.663,202.338,0.033        c23.079-0.218,41.301,17.874,41.076,41.73c-0.651,68.139-0.188,136.327-0.264,204.481c-0.02,20.655-10.222,35.331-28.14,40.26        c-4.237,1.172-8.835,1.341-13.261,1.366c-67.214,0.082-134.428-0.428-201.638,0.3c-23.638,0.259-42.467-17.843-41.788-42.523        C-447.181-839.494-447.893-873.353-447.893-907.196z M-185.545-1011.813c-0.052,0-0.091-0.023-0.148-0.023        c0-2.134,0.077-4.284-0.007-6.441c-0.297-7.006-3.059-9.795-10.016-10.118c-17.461-0.856-21.982,0.744-22.763,8.712        c-0.511,5.18-0.423,10.489-0.015,15.709c0.463,5.948,4.357,9.318,10.014,8.735c7.795-0.807,17.781,4.453,22.315-6.667        C-184.986-1004.807-185.701-1008.5-185.545-1011.813z M-170.169-974.35c-3.418-0.234-6.42-0.623-9.436-0.623        c-19.568-0.064-39.148,0.195-58.719-0.209c-4.133-0.089-8.781-1.625-12.252-3.92c-22.936-15.225-47.681-21.059-74.623-15.031        c-9.246,2.07-18.137,5.713-27.616,8.785c0-18.482-0.136-36.809,0.085-55.137c0.067-4.962-1.567-6.65-6.493-6.578        c-16.743,0.266-33.485,0.355-50.224,0.097c-5.792-0.097-7.847,1.753-7.752,7.725c0.284,19.071-0.035,38.118,0.165,57.198        c0.055,5.204-1.62,7.41-6.924,7.111c-5.561-0.339-11.13-0.08-17.427-0.08c0,3.684,0,6.028,0,8.355        c0,53.642,0.471,107.267-0.24,160.884c-0.279,20.841,15.032,36.251,35.677,36.034c66.958-0.639,133.94-0.21,200.906-0.267        c3.971,0,8.092-0.137,11.874-1.196c14.868-4.202,23.326-16.243,23.343-33.311c0.096-54.352,0.048-108.697,0.023-163.018        C-169.802-969.639-170.025-971.73-170.169-974.35z" style="fill-rule:evenodd;clip-rule:evenodd;fill:#512616;"/><path d="M-406.836-762.425c-11.853,0-22.699-4.493-30.559-12.679        c-7.703-7.992-11.761-18.861-11.442-30.586c0.66-23.677,0.5-47.758,0.368-71.056c-0.067-9.973-0.128-20.3-0.128-30.449        c0-10.166,0.061-20.502,0.128-30.498c0.145-23.298,0.292-47.38-0.368-71.033c-0.339-11.782,3.718-22.675,11.401-30.667        c7.836-8.146,18.666-12.638,30.495-12.638h0.496c32.481,0.363,66.178,0.534,100.16,0.534c33.001,0,67.373-0.17,102.162-0.493        h0.412c11.322,0,21.815,4.331,29.535,12.218c7.743,7.903,11.941,18.62,11.838,30.224c-0.444,46.214-0.381,93.206-0.309,138.67        c0.033,21.947,0.076,43.878,0.048,65.811c-0.015,21.011-10.475,35.929-28.671,40.939c-4.379,1.212-9.043,1.39-13.441,1.39        c-21.567,0.017-43.144,0-64.716-0.048c-16.171-0.017-32.345-0.041-48.516-0.041c-35.428,0-62.681,0.129-88.398,0.404H-406.836        z M-406.94-1050.603c-11.453,0-21.907,4.348-29.483,12.203c-7.416,7.726-11.317,18.248-11.006,29.657        c0.676,23.669,0.521,47.751,0.372,71.064c-0.059,9.98-0.123,20.316-0.123,30.482c0,10.149,0.064,20.461,0.123,30.449        c0.149,23.298,0.297,47.403-0.359,71.08c-0.315,11.346,3.598,21.852,11.038,29.577c7.593,7.887,18.086,12.235,29.543,12.235        h0.488c25.706-0.275,52.978-0.404,88.406-0.404c16.171,0,32.345,0.024,48.529,0.04c21.56,0.048,43.136,0.064,64.703,0.048        c4.294,0,8.855-0.169,13.073-1.325c17.53-4.832,27.6-19.265,27.624-39.573c0.02-21.932-0.008-43.863-0.039-65.811        c-0.077-45.465-0.141-92.456,0.287-138.704c0.119-11.184-3.941-21.56-11.418-29.196c-7.451-7.613-17.586-11.791-28.527-11.791        h-0.4c-34.793,0.324-69.161,0.501-102.174,0.501c-33.981,0-67.69-0.177-100.176-0.517L-406.94-1050.603z M-406.349-769.011        c-10.126,0-19.34-3.726-25.957-10.521c-6.601-6.765-10.171-16.081-10.03-26.264c0.512-38.28,0.411-77.239,0.315-114.896        c-0.04-15.322-0.083-30.643-0.083-45.964v-9.059h0.719c1.947,0,3.845-0.024,5.692-0.065c1.748-0.016,3.467-0.04,5.145-0.04        c2.575,0,4.678,0.064,6.629,0.17c2.33,0.121,3.926-0.26,4.856-1.188c0.928-0.97,1.347-2.61,1.328-5.204        c-0.101-8.776-0.077-17.729-0.064-26.393c0.02-10.085,0.04-20.534-0.104-30.789c-0.056-3.216,0.5-5.244,1.787-6.585        c1.276-1.302,3.211-1.882,6.26-1.882h0.428c6.604,0.113,13.597,0.177,20.789,0.177c9.067,0,18.686-0.09,29.391-0.258h0.34        c2.586,0,4.217,0.484,5.313,1.616c1.119,1.155,1.603,2.901,1.575,5.673c-0.16,13.301-0.14,26.853-0.104,39.936        c0.008,4.736,0.008,9.471,0.02,14.223c2.671-0.897,5.329-1.819,7.916-2.716c6.421-2.254,12.48-4.363,18.841-5.794        c6.989-1.551,13.993-2.359,20.837-2.359c18.566,0,36.834,5.883,54.325,17.496c3.418,2.263,7.968,3.725,11.882,3.789        c10.146,0.219,20.2,0.26,27.837,0.26c4.077,0,8.158-0.025,12.24-0.025c6.209-0.016,12.422-0.016,18.621-0.016        c2.063,0.016,4.105,0.194,6.273,0.388c1.035,0.081,2.098,0.162,3.209,0.251l0.625,0.041l0.031,0.614        c0.056,0.88,0.104,1.689,0.172,2.457c0.104,1.535,0.209,2.974,0.209,4.412l0.011,29.77c0.021,43.67,0.04,88.827-0.036,133.248        c-0.027,17.319-8.727,29.73-23.866,33.982c-3.962,1.131-8.307,1.228-12.065,1.228c-21.111,0.016-42.212,0-63.32-0.032        c-15.795-0.017-31.585-0.042-47.381-0.042c-36.268,0-64.08,0.114-90.205,0.364H-406.349z M-440.681-974.285v7.629        c0,15.322,0.032,30.643,0.08,45.964c0.087,37.657,0.196,76.616-0.32,114.92c-0.124,9.778,3.286,18.756,9.615,25.237        c6.356,6.513,15.223,10.101,24.958,10.101h0.388c26.125-0.258,53.949-0.363,90.217-0.363c15.795,0,31.586,0.016,47.381,0.041        c21.108,0.024,42.217,0.04,63.32,0.024c3.658,0,7.892-0.088,11.686-1.18c14.477-4.065,22.807-15.96,22.828-32.599        c0.071-44.421,0.06-89.577,0.031-133.248l-0.012-29.77c0-1.389-0.092-2.748-0.2-4.332c-0.04-0.565-0.096-1.188-0.124-1.811        c-0.895-0.08-1.774-0.152-2.614-0.209c-2.144-0.194-4.157-0.364-6.157-0.364c-6.212-0.024-12.412-0.024-18.609,0        c-4.094,0-8.175,0.016-12.252,0.016c-7.648,0-17.719-0.016-27.865-0.226c-4.153-0.089-9.006-1.641-12.633-4.057        c-17.25-11.443-35.268-17.261-53.545-17.261c-6.74,0-13.648,0.792-20.529,2.343c-6.289,1.406-12.309,3.5-18.685,5.729        c-2.891,1.01-5.861,2.054-8.875,3.03l-0.932,0.299v-0.977c0-5.067,0-10.142-0.008-15.201        c-0.032-13.108-0.055-26.635,0.104-39.953c0.021-2.368-0.335-3.798-1.167-4.654c-0.795-0.808-2.167-1.188-4.305-1.188h-0.304        c-10.726,0.169-20.353,0.25-29.427,0.25c-7.192,0-14.204-0.065-20.824-0.162h-0.393c-2.65,0-4.265,0.445-5.245,1.447        c-0.996,1.026-1.439,2.789-1.396,5.567c0.153,10.271,0.132,20.72,0.113,30.805c-0.017,8.663-0.028,17.584,0.059,26.393        c0.032,2.982-0.519,4.962-1.738,6.197c-1.235,1.262-3.146,1.795-5.937,1.617c-1.919-0.104-4.01-0.169-6.549-0.169        c-1.678,0-3.382,0.023-5.137,0.064C-437.307-974.333-438.97-974.285-440.681-974.285z M-197.006-993.955L-197.006-993.955        c-1.607,0-3.298-0.178-4.909-0.339c-2.195-0.227-4.449-0.453-6.488-0.243c-6.113,0.646-10.299-3.087-10.794-9.374        c-0.464-5.883-0.456-11.055,0.007-15.863c0.72-7.305,4.534-9.543,16.315-9.543c2.022,0,4.378,0.065,7.2,0.194        c7.275,0.363,10.375,3.492,10.678,10.828c0.064,1.487,0.045,3.006,0.036,4.461c-0.017,0.436-0.017,0.888-0.024,1.309h0.033        l0.115,0.727c-0.057,1.018-0.008,2.11,0.02,3.152c0.084,2.409,0.173,4.889-0.695,7.015        C-188.275-994.835-193.101-993.955-197.006-993.955z M-206.641-996.047c1.579,0,3.249,0.169,4.856,0.314        c1.58,0.169,3.23,0.348,4.778,0.348c3.673,0,7.751-0.808,10.187-6.804c0.746-1.835,0.676-4.047,0.588-6.392        c-0.028-0.873-0.061-1.771-0.041-2.643l-0.127-0.614c0-0.663,0-1.35,0.016-2.029c0.02-1.422,0.027-2.925-0.029-4.372        c-0.279-6.667-2.718-9.139-9.338-9.463c-2.795-0.112-5.121-0.193-7.124-0.193c-12.125,0-14.327,2.432-14.899,8.275        c-0.464,4.711-0.464,9.81-0.008,15.58c0.428,5.52,3.961,8.631,9.243,8.073C-207.949-996.007-207.326-996.047-206.641-996.047z        " style="fill:#512616;"/></g></g><polygon points="-352.834,-1047.063 -369.217,-1047.063       -369.217,-976.313 -352.834,-984.411     " style="fill-rule:evenodd;clip-rule:evenodd;fill:#2E3192;"/><polygon points="-368.51,-975.949 -368.51,-1047.063       -384.888,-1047.063 -384.888,-976.313 -369.217,-976.313     " style="fill-rule:evenodd;clip-rule:evenodd;fill:#006837;"/><rect height="71.113" style="fill-rule:evenodd;clip-rule:evenodd;fill:#FBB03B;" width="16.378" x="-400.611" y="-1047.063"/><polygon points="-399.9,-975.99 -399.9,-1047.063       -416.283,-1047.063 -416.283,-976.289     " style="fill-rule:evenodd;clip-rule:evenodd;fill:#BF0004;"/><path d="M-179.324-1007.773c0,9.488-7.613,17.164-16.982,17.164      h-11.682c-9.387,0-16.986-7.676-16.986-17.164v-5.6c0-9.479,7.6-17.18,16.986-17.18h11.682c9.369,0,16.982,7.701,16.982,17.18      V-1007.773z" style="fill-rule:evenodd;clip-rule:evenodd;fill:#263846;"/><path d="M-347.498-987.352c-0.915-4.194-4.617-7.33-9.046-7.33h-75.509c-5.129,0-9.275,4.194-9.275,9.375      c0,5.155,4.146,9.358,9.275,9.358h72.958C-356.437-982.73-351.524-985.881-347.498-987.352z" style="fill:#CEC3C0;"/><path d="M-378.296-904.174c-0.16,1.956-0.264,3.943-0.264,5.948c0,40.752,32.682,73.812,73.015,73.812      c40.313,0,72.999-33.06,72.999-73.812c0-1.68-0.076-3.346-0.18-5.011C-289.254-875.292-342.081-887.447-378.296-904.174z" style="opacity:0.2;"/><g><path d="M-447.893-907.196c0-33.843,0.716-67.736-0.243-101.53       c-0.701-24.898,18.149-42.846,41.676-42.586c67.45,0.727,134.896,0.663,202.338,0.033c23.079-0.218,41.301,17.874,41.076,41.73       c-0.651,68.139-0.188,136.327-0.264,204.481c-0.02,20.655-10.222,35.331-28.14,40.26c-4.237,1.172-8.835,1.341-13.261,1.366       c-67.214,0.082-134.428-0.428-201.638,0.3c-23.638,0.259-42.467-17.843-41.788-42.523       C-447.181-839.494-447.893-873.353-447.893-907.196z M-185.545-1011.813c-0.052,0-0.091-0.023-0.148-0.023       c0-2.134,0.077-4.284-0.007-6.441c-0.297-7.006-3.059-9.795-10.016-10.118c-17.461-0.856-21.982,0.744-22.763,8.712       c-0.511,5.18-0.423,10.489-0.015,15.709c0.463,5.948,4.357,9.318,10.014,8.735c7.795-0.807,17.781,4.453,22.315-6.667       C-184.986-1004.807-185.701-1008.5-185.545-1011.813z M-170.169-974.35c-3.418-0.234-6.42-0.623-9.436-0.623       c-19.568-0.064-39.148,0.195-58.719-0.209c-4.133-0.089-8.781-1.625-12.252-3.92c-22.936-15.225-47.681-21.059-74.623-15.031       c-9.246,2.07-18.137,5.713-27.616,8.785c0-18.482-0.136-36.809,0.085-55.137c0.067-4.962-1.567-6.65-6.493-6.578       c-16.743,0.266-33.485,0.355-50.224,0.097c-5.792-0.097-7.847,1.753-7.752,7.725c0.284,19.071-0.035,38.118,0.165,57.198       c0.055,5.204-1.62,7.41-6.924,7.111c-5.561-0.339-11.13-0.08-17.427-0.08c0,3.684,0,6.028,0,8.355       c0,53.642,0.471,107.267-0.24,160.884c-0.279,20.841,15.032,36.251,35.677,36.034c66.958-0.639,133.94-0.21,200.906-0.267       c3.971,0,8.092-0.137,11.874-1.196c14.868-4.202,23.326-16.243,23.343-33.311c0.096-54.352,0.048-108.697,0.023-163.018       C-169.802-969.639-170.025-971.73-170.169-974.35z" style="fill-rule:evenodd;clip-rule:evenodd;fill:#512616;"/><path d="M-406.836-762.425c-11.853,0-22.699-4.493-30.559-12.679       c-7.703-7.992-10.782-209.969-11.442-233.622c-0.339-11.782,3.718-22.675,11.401-30.667       c7.836-8.146,18.666-12.638,30.495-12.638h0.496c32.481,0.363,66.178,0.534,100.16,0.534c33.001,0,67.373-0.17,102.162-0.493       h0.412c11.322,0,21.815,4.331,29.535,12.218c7.743,7.903,11.941,18.62,11.838,30.224       c-0.444,46.214-0.232,182.549-0.261,204.481c-0.015,21.011-10.475,35.929-28.671,40.939c-4.379,1.212-9.043,1.39-13.441,1.39       c-21.567,0.017-43.144,0-64.716-0.048c-16.171-0.017-32.345-0.041-48.516-0.041c-35.428,0-62.681,0.129-88.398,0.404H-406.836z        M-406.94-1050.603c-11.453,0-21.907,4.348-29.483,12.203c-7.416,7.726-10.653,18.249-11.006,29.657       c-0.726,23.427,0.313,122.007,0.372,131.996c0.149,23.298,0.297,47.403-0.359,71.08c-0.315,11.346,3.598,21.852,11.038,29.577       c7.593,7.887,18.086,12.235,29.543,12.235h0.488c25.706-0.275,52.978-0.404,88.406-0.404c16.171,0,32.345,0.024,48.529,0.04       c21.56,0.048,43.136,0.064,64.703,0.048c4.294,0,8.855-0.169,13.073-1.325c17.53-4.832,27.6-19.265,27.624-39.573       c0.02-21.932-3.693-226.074-11.17-233.71c-7.451-7.613-17.586-11.791-28.527-11.791h-0.4       c-34.793,0.324-69.161,0.501-102.174,0.501c-33.981,0-67.69-0.177-100.176-0.517L-406.94-1050.603z M-406.349-769.011       c-10.126,0-19.34-3.726-25.957-10.521c-6.601-6.765-10.171-16.081-10.03-26.264c0.512-38.28,0.411-77.239,0.315-114.896       c-0.04-15.322-0.083-30.643-0.083-45.964v-9.059h0.719c1.947,0,3.845-0.024,5.692-0.065c1.748-0.016,3.467-0.04,5.145-0.04       c2.575,0,4.678,0.064,6.629,0.17c2.33,0.121,3.926-0.26,4.856-1.188c0.928-0.97,1.347-2.61,1.328-5.204       c-0.101-8.776-0.077-17.729-0.064-26.393c0.02-10.085,0.04-20.534-0.104-30.789c-0.056-3.216,0.5-5.244,1.787-6.585       c1.276-1.302,3.211-1.882,6.26-1.882h0.428c6.604,0.113,13.597,0.177,20.789,0.177c9.067,0,18.686-0.09,29.391-0.258h0.34       c2.586,0,4.217,0.484,5.313,1.616c1.119,1.155,1.603,2.901,1.575,5.673c-0.16,13.301-0.14,26.853-0.104,39.936       c0.008,4.736,0.008,9.471,0.02,14.223c2.671-0.897,5.329-1.819,7.916-2.716c6.421-2.254,12.48-4.363,18.841-5.794       c6.989-1.551,13.993-2.359,20.837-2.359c18.566,0,36.834,5.883,54.325,17.496c3.418,2.263,7.968,3.725,11.882,3.789       c10.146,0.219,20.2,0.26,27.837,0.26c4.077,0,8.158-0.025,12.24-0.025c6.209-0.016,12.422-0.016,18.621-0.016       c2.063,0.016,4.105,0.194,6.273,0.388c1.035,0.081,2.098,0.162,3.209,0.251l0.625,0.041l0.031,0.614       c0.056,0.88,0.104,1.689,0.172,2.457c0.104,1.535,0.209,2.974,0.209,4.412l0.011,29.77c0.021,43.67,0.04,88.827-0.036,133.248       c-0.027,17.319-8.727,29.73-23.866,33.982c-3.962,1.131-8.307,1.228-12.065,1.228c-21.111,0.016-42.212,0-63.32-0.032       c-15.795-0.017-31.585-0.042-47.381-0.042c-36.268,0-64.08,0.114-90.205,0.364H-406.349z M-440.681-974.285v7.629       c0,15.322,0.276,122.581-0.24,160.884c-0.124,9.778,3.286,18.756,9.615,25.237c6.356,6.513,15.223,10.101,24.958,10.101h0.388       c26.125-0.258,53.949-0.363,90.217-0.363c15.795,0,31.586,0.016,47.381,0.041c21.108,0.024,42.217,0.04,63.32,0.024       c3.658,0,7.892-0.088,11.686-1.18c14.477-4.065,22.807-15.96,22.828-32.599c0.071-44.421,0.06-89.577,0.031-133.248       l-0.012-29.77c0-1.389-0.092-2.748-0.2-4.332c-0.04-0.565-0.096-1.188-0.124-1.811c-0.895-0.08-1.774-0.152-2.614-0.209       c-2.144-0.194-4.157-0.364-6.157-0.364c-6.212-0.024-12.412-0.024-18.609,0c-4.094,0-8.175,0.016-12.252,0.016       c-7.648,0-17.719-0.016-27.865-0.226c-4.153-0.089-9.006-1.641-12.633-4.057c-17.25-11.443-35.268-17.261-53.545-17.261       c-6.74,0-13.648,0.792-20.529,2.343c-6.289,1.406-12.309,3.5-18.685,5.729c-2.891,1.01-5.861,2.054-8.875,3.03l-0.932,0.299       v-0.977c0-5.067,0-10.142-0.008-15.201c-0.032-13.108-0.055-26.635,0.104-39.953c0.021-2.368-0.335-3.798-1.167-4.654       c-0.795-0.808-2.167-1.188-4.305-1.188h-0.304c-10.726,0.169-20.353,0.25-29.427,0.25c-7.192,0-14.204-0.065-20.824-0.162       h-0.393c-2.65,0-4.265,0.445-5.245,1.447c-0.996,1.026-1.439,2.789-1.396,5.567c0.153,10.271,0.132,20.72,0.113,30.805       c-0.017,8.663-0.028,17.584,0.059,26.393c0.032,2.982-0.519,4.962-1.738,6.197c-1.235,1.262-3.146,1.795-5.937,1.617       c-1.919-0.104-4.01-0.169-6.549-0.169c-1.678,0-3.382,0.023-5.137,0.064C-437.307-974.333-438.97-974.285-440.681-974.285z        M-197.006-993.955L-197.006-993.955c-1.607,0-3.298-0.178-4.909-0.339c-2.195-0.227-4.449-0.453-6.488-0.243       c-6.113,0.646-10.299-3.087-10.794-9.374c-0.464-5.883-0.456-11.055,0.007-15.863c0.72-7.305,4.534-9.543,16.315-9.543       c2.022,0,4.378,0.065,7.2,0.194c7.275,0.363,10.375,3.492,10.678,10.828c0.064,1.487,0.045,3.006,0.036,4.461       c-0.017,0.436-0.017,0.888-0.024,1.309h0.033l0.115,0.727c-0.057,1.018-0.008,2.11,0.02,3.152       c0.084,2.409,0.173,4.889-0.695,7.015C-188.275-994.835-193.101-993.955-197.006-993.955z M-206.641-996.047       c1.579,0,3.249,0.169,4.856,0.314c1.58,0.169,3.23,0.348,4.778,0.348c3.673,0,7.751-0.808,10.187-6.804       c0.746-1.835,0.676-4.047,0.588-6.392c-0.028-0.873-0.061-1.771-0.041-2.643l-0.127-0.614c0-0.663,0-1.35,0.016-2.029       c0.02-1.422,0.027-2.925-0.029-4.372c-0.279-6.667-2.718-9.139-9.338-9.463c-2.795-0.112-5.121-0.193-7.124-0.193       c-12.125,0-14.327,2.432-14.899,8.275c-0.464,4.711-0.464,9.81-0.008,15.58c0.428,5.52,3.961,8.631,9.243,8.073       C-207.949-996.007-207.326-996.047-206.641-996.047z" style="fill:#512616;"/></g><g><path d="M-202.447-1025.463c-4.857,0-8.013,2.223-9.814,4.073c-2.563,2.603-4.059,6.263-4.002,9.763       c0.111,7.846,6.08,14.02,13.611,14.044l0.061,0.364v-0.364c7.715,0,13.772-6.093,13.792-13.9       c0.145-3.426-1.251-7.038-3.733-9.697C-195.096-1023.902-198.614-1025.438-202.447-1025.463z" style="fill:#577D94;"/><g id="XMLID_2_"><g><path d="M-202.375-1018.307c3.75,0.108,6.56,3.172,6.526,7.112c-0.033,4.028-2.776,6.848-6.661,6.848         c-1.922,0-3.576-0.652-4.786-1.889c-1.263-1.284-1.942-3.152-1.902-5.244c0.067-3.771,3.044-6.834,6.641-6.834         L-202.375-1018.307z" style="fill:#415E6F;"/></g><g/></g><g id="XMLID_1_"><g><path d="M-202.543-1014.893c1.994,0.037,3.48,1.585,3.458,3.606c-0.011,2.077-1.425,3.531-3.441,3.531         c-0.964,0-1.842-0.352-2.477-0.988c-0.649-0.67-0.994-1.616-0.975-2.668         C-205.951-1013.329-204.407-1014.893-202.543-1014.893z" style="fill:#233A48;"/></g><g/></g><path d="M-216.216-1013.332c-0.019,0.387-0.039,0.768-0.039,1.146c0,7.742,6.224,14.029,13.883,14.029       c7.666,0,13.89-6.287,13.89-14.029c0-0.339-0.013-0.638-0.036-0.953C-199.273-1007.829-209.32-1010.133-216.216-1013.332z" style="opacity:0.2;"/></g><path d="M-444.875-902.639c0,0,125.106,155.414,278.879,0v107.316      c0,0-3.613,23.904-29.584,27.887c-25.977,3.992,0,1.43,0,1.43l-216.022,0.809c0,0-30.259-5.479-33.273-28.348V-902.639z" style="opacity:0.2;fill-rule:evenodd;clip-rule:evenodd;"/><path d="M-447.117-886.735" style="fill:#512616;"/><path d="M-448.177-829.368" style="fill:#512616;"/></g><path d="M-108.803-1078.96     c1.731,12.08,2.644,24.41,2.644,36.976c0,143.088-116.003,259.099-259.106,259.099c-84.032,0-158.713-40.019-206.049-102.031     C-553.375-759.33-445.4-662.772-314.857-662.772c143.099,0,259.102-116.004,259.102-259.106     C-55.755-980.951-75.525-1035.384-108.803-1078.96z" style="opacity:0.2;fill-rule:evenodd;clip-rule:evenodd;fill:#232121;"/></g></g></svg>